<?xml version="1.0" encoding="UTF-8"?>
<svg width="32" height="32" viewBox="0 0 32 32" fill="none" xmlns="http://www.w3.org/2000/svg">
  <!-- 背景 -->
  <rect width="32" height="32" rx="8" fill="#1E293B"/>
  
  <!-- 外部信号圈 -->
  <path class="signal-wave" d="M16 4C9.37258 4 4 9.37258 4 16C4 22.6274 9.37258 28 16 28C22.6274 28 28 22.6274 28 16" 
        stroke="#38BDF8" stroke-width="2" stroke-linecap="round" opacity="0.3">
    <animate attributeName="opacity" values="0.3;0.8;0.3" dur="2s" repeatCount="indefinite"/>
  </path>
  
  <!-- 中间信号圈 -->
  <path class="signal-wave" d="M16 8C11.5817 8 8 11.5817 8 16C8 20.4183 11.5817 24 16 24C20.4183 24 24 20.4183 24 16" 
        stroke="#38BDF8" stroke-width="2" stroke-linecap="round" opacity="0.5">
    <animate attributeName="opacity" values="0.5;1;0.5" dur="2s" repeatCount="indefinite" begin="0.5s"/>
  </path>
  
  <!-- 内部信号圈 -->
  <path class="signal-wave" d="M16 12C13.7909 12 12 13.7909 12 16C12 18.2091 13.7909 20 16 20C18.2091 20 20 18.2091 20 16" 
        stroke="#38BDF8" stroke-width="2" stroke-linecap="round" opacity="0.7">
    <animate attributeName="opacity" values="0.7;1;0.7" dur="2s" repeatCount="indefinite" begin="1s"/>
  </path>
  
  <!-- 中心圆点 -->
  <circle cx="16" cy="16" r="2" fill="#38BDF8">
    <animate attributeName="r" values="1.5;2;1.5" dur="2s" repeatCount="indefinite"/>
    <animate attributeName="fill-opacity" values="0.8;1;0.8" dur="2s" repeatCount="indefinite"/>
  </circle>
  
  <!-- 数据流动画 -->
  <g class="data-stream">
    <circle cx="16" cy="16" r="4" stroke="#38BDF8" stroke-width="0.5" stroke-dasharray="2 2" opacity="0.5">
      <animateTransform attributeName="transform" type="rotate" from="0 16 16" to="360 16 16" dur="8s" repeatCount="indefinite"/>
    </circle>
  </g>
</svg> 