#define ready_width 128
#define ready_height 64
static unsigned char ready_bits[] = {
  0x00, 0xFF, 0x03, 0xF0, 0xFF, 0x0F, 0xF0, 0x03, 0xFC, 0x03, 0xF0, 0x03, 
  0xFE, 0x00, 0xF0, 0x03, 0x80, 0xFF, 0x3F, 0xF8, 0xFF, 0x07, 0xF8, 0x03, 
  0xFC, 0x7F, 0xE0, 0x07, 0x7F, 0x00, 0xFC, 0x0F, 0x80, 0xFF, 0x7F, 0xF8, 
  0xFF, 0x07, 0xF8, 0x03, 0xFE, 0xFF, 0xE0, 0x87, 0x3F, 0x00, 0xFE, 0x1F, 
  0x80, 0xFF, 0x7F, 0xF8, 0xFF, 0x07, 0xFC, 0x03, 0xFE, 0xFF, 0xE1, 0x87, 
  0x1F, 0x00, 0xFF, 0x3F, 0x80, 0xFF, 0xFF, 0xF8, 0xFF, 0x07, 0xFC, 0x03, 
  0xFE, 0xFF, 0xC1, 0xC7, 0x1F, 0x00, 0x3F, 0x3F, 0x80, 0x0F, 0xFC, 0xF8, 
  0x00, 0x00, 0xFE, 0x07, 0x3E, 0xFC, 0xC3, 0xEF, 0x0F, 0x80, 0x1F, 0x3F, 
  0xC0, 0x0F, 0xFC, 0xFC, 0x00, 0x00, 0xFF, 0x07, 0x3F, 0xF0, 0xC3, 0xEF, 
  0x07, 0x00, 0x00, 0x3F, 0xC0, 0x0F, 0x7C, 0xFC, 0xFF, 0x01, 0xDF, 0x07, 
  0x3F, 0xF0, 0x83, 0xFF, 0x03, 0x00, 0xC0, 0x1F, 0xC0, 0x0F, 0x7F, 0xFC, 
  0xFF, 0x81, 0xDF, 0x07, 0x3F, 0xF0, 0x83, 0xFF, 0x01, 0x00, 0xF0, 0x0F, 
  0xC0, 0xFF, 0x3F, 0xFC, 0xFF, 0x81, 0xCF, 0x07, 0x3F, 0xF0, 0x03, 0xFF, 
  0x01, 0x00, 0xF8, 0x07, 0xE0, 0xFF, 0x07, 0xFC, 0xFF, 0xC1, 0xCF, 0x07, 
  0x1F, 0xF0, 0x03, 0xFF, 0x00, 0x00, 0xF8, 0x00, 0xE0, 0xFF, 0x1F, 0xFE, 
  0xFF, 0xE0, 0xC7, 0x8F, 0x1F, 0xF0, 0x03, 0x7F, 0x00, 0x00, 0x7C, 0x00, 
  0xE0, 0xFF, 0x1F, 0x7E, 0x00, 0xE0, 0xFF, 0x8F, 0x1F, 0xF8, 0x01, 0x3F, 
  0x00, 0x00, 0x7C, 0x00, 0xE0, 0x87, 0x1F, 0x7E, 0x00, 0xF0, 0xFF, 0x8F, 
  0x1F, 0xFC, 0x01, 0x3F, 0x00, 0x00, 0x00, 0x00, 0xE0, 0x03, 0x1F, 0xFE, 
  0xFF, 0xF1, 0xFF, 0x8F, 0xFF, 0xFF, 0x00, 0x3F, 0x00, 0x00, 0x7C, 0x00, 
  0xF0, 0x03, 0x1F, 0xFF, 0xFF, 0xF9, 0xFF, 0xCF, 0xFF, 0xFF, 0x00, 0x3F, 
  0x00, 0x00, 0x7E, 0x00, 0xF0, 0x03, 0x1F, 0xFF, 0xFF, 0xFC, 0x80, 0xCF, 
  0xFF, 0x7F, 0x00, 0x1F, 0x00, 0x00, 0x7E, 0x00, 0xF0, 0x03, 0x1F, 0xFF, 
  0xFF, 0xFC, 0x80, 0xDF, 0xFF, 0x1F, 0x80, 0x1F, 0x00, 0x00, 0x3E, 0x00, 
  0xF0, 0x03, 0x1F, 0xFF, 0xFF, 0x7E, 0x80, 0xDF, 0xFF, 0x07, 0x80, 0x1F, 
  0x00, 0x00, 0x3E, 0x00, 0x00, 0x00, 0x00, 0x00, 0x00, 0x00, 0x00, 0x00, 
  0x00, 0x00, 0x00, 0x00, 0x00, 0x00, 0x00, 0x00, 0x00, 0x00, 0x00, 0x00, 
  0x00, 0x00, 0x00, 0x00, 0x00, 0x00, 0x00, 0x00, 0x00, 0x00, 0x00, 0x00, 
  0x00, 0x00, 0x00, 0x00, 0x00, 0x00, 0x00, 0x00, 0x00, 0x00, 0x00, 0x00, 
  0x00, 0x00, 0x00, 0x00, 0x00, 0x00, 0x00, 0x00, 0x00, 0x00, 0x00, 0x00, 
  0x00, 0x00, 0x00, 0x00, 0x00, 0x00, 0x00, 0x00, 0x00, 0x00, 0x00, 0x00, 
  0x00, 0x00, 0x00, 0x00, 0x00, 0x00, 0x00, 0x00, 0x00, 0x00, 0x00, 0x00, 
  0x00, 0x00, 0x00, 0x00, 0x00, 0x00, 0x00, 0x00, 0x00, 0x00, 0x00, 0x00, 
  0x00, 0x00, 0x00, 0x00, 0x00, 0x00, 0x00, 0x00, 0x00, 0x00, 0x00, 0x00, 
  0x00, 0x00, 0x00, 0x00, 0x00, 0x00, 0x00, 0x00, 0x00, 0x00, 0x00, 0x00, 
  0x00, 0x00, 0x00, 0x00, 0x00, 0x00, 0x00, 0x00, 0x00, 0x00, 0x00, 0x00, 
  0x00, 0x00, 0x00, 0x00, 0x00, 0x00, 0x00, 0x00, 0x00, 0x00, 0x00, 0x00, 
  0x00, 0x00, 0x00, 0x00, 0x00, 0x00, 0x00, 0x00, 0x00, 0x00, 0x00, 0x00, 
  0x00, 0x00, 0x00, 0x00, 0x00, 0x00, 0x00, 0x00, 0x00, 0x00, 0x00, 0x00, 
  0x00, 0x00, 0x00, 0x00, 0x00, 0x00, 0x00, 0x00, 0x00, 0x00, 0x00, 0x00, 
  0x00, 0x00, 0x00, 0x00, 0x00, 0x00, 0x00, 0x00, 0x00, 0x00, 0x00, 0x00, 
  0x00, 0x00, 0x00, 0x00, 0x00, 0x00, 0x00, 0x00, 0x00, 0x00, 0x00, 0x00, 
  0x00, 0x00, 0x00, 0x00, 0x00, 0x00, 0x00, 0x00, 0x00, 0x00, 0x00, 0x00, 
  0x00, 0x00, 0x00, 0x00, 0x00, 0x00, 0x00, 0x00, 0x00, 0x00, 0x00, 0x00, 
  0x00, 0x00, 0x00, 0x00, 0x00, 0x00, 0x00, 0x00, 0x00, 0x00, 0x00, 0x00, 
  0x00, 0x00, 0x00, 0x00, 0x00, 0x00, 0x00, 0x00, 0x00, 0x00, 0x00, 0x00, 
  0x00, 0x00, 0x00, 0x00, 0x00, 0x00, 0x00, 0x00, 0x00, 0x00, 0x00, 0x00, 
  0x00, 0x00, 0x00, 0x00, 0x00, 0x00, 0x00, 0x00, 0x00, 0x00, 0x00, 0x00, 
  0x00, 0x00, 0x00, 0x00, 0x00, 0x00, 0x00, 0x00, 0x00, 0x00, 0x00, 0x00, 
  0x00, 0x00, 0x00, 0x00, 0x00, 0x00, 0x00, 0x00, 0x00, 0x00, 0x00, 0x00, 
  0x00, 0x00, 0x00, 0x00, 0x00, 0x00, 0x00, 0x00, 0x00, 0x00, 0x00, 0x00, 
  0x00, 0x00, 0x00, 0x00, 0x00, 0x00, 0x00, 0x00, 0x00, 0x00, 0x00, 0x00, 
  0x00, 0x00, 0x00, 0x00, 0x00, 0x00, 0x00, 0x00, 0x00, 0x00, 0x00, 0x00, 
  0x00, 0x00, 0x00, 0x00, 0x00, 0x00, 0x00, 0x00, 0x00, 0x00, 0x00, 0x00, 
  0x00, 0x00, 0x00, 0x00, 0x00, 0x00, 0x00, 0x00, 0x00, 0x00, 0x00, 0x00, 
  0x00, 0x00, 0x00, 0x00, 0x00, 0x00, 0x00, 0x00, 0x00, 0x00, 0x00, 0x00, 
  0x00, 0x00, 0x00, 0x00, 0x00, 0x00, 0x00, 0x00, 0x00, 0x00, 0x00, 0x00, 
  0x00, 0x00, 0x00, 0x00, 0x00, 0x00, 0x00, 0x00, 0x00, 0x00, 0x00, 0x00, 
  0x00, 0x00, 0x00, 0x00, 0x00, 0x00, 0x00, 0x00, 0x00, 0x00, 0x00, 0x00, 
  0x00, 0x00, 0x00, 0x00, 0x00, 0x00, 0x00, 0x00, 0x00, 0x00, 0x00, 0x00, 
  0x00, 0x00, 0x00, 0x00, 0x00, 0x00, 0x00, 0x00, 0x00, 0x00, 0x00, 0x00, 
  0x00, 0x00, 0x00, 0x00, 0x00, 0x00, 0x00, 0x00, 0x00, 0x00, 0x00, 0x00, 
  0x00, 0x00, 0x00, 0x00, 0x00, 0x00, 0x00, 0x00, 0x00, 0x00, 0x00, 0x00, 
  0x00, 0x00, 0x00, 0x00, 0x00, 0x00, 0x00, 0x00, 0x00, 0x00, 0x00, 0x00, 
  0x00, 0x00, 0x00, 0x00, 0x00, 0x00, 0x00, 0x00, 0x00, 0x00, 0x00, 0x00, 
  0x00, 0x00, 0x00, 0x00, 0x00, 0x00, 0x00, 0x00, 0x00, 0x00, 0x00, 0x00, 
  0x00, 0x00, 0x00, 0x00, 0x00, 0x00, 0x00, 0x00, 0x00, 0x00, 0x00, 0x00, 
  0x00, 0x00, 0x00, 0x00, 0x00, 0x00, 0x00, 0x00, 0x00, 0x00, 0x00, 0x00, 
  0x00, 0x00, 0x00, 0x00, 0x00, 0x00, 0x00, 0x00, 0x00, 0x00, 0x00, 0x00, 
  0x00, 0x00, 0x00, 0x00, 0x00, 0x00, 0x00, 0x00, 0x00, 0x00, 0x00, 0x00, 
  0x00, 0x00, 0x00, 0x00, 0x00, 0x00, 0x00, 0x00, 0x00, 0x00, 0x00, 0x00, 
  0x00, 0x00, 0x00, 0x00, 0x00, 0x00, 0x00, 0x00, 0x00, 0x00, 0x00, 0x00, 
  0x00, 0x00, 0x00, 0x00, 0x00, 0x00, 0x00, 0x00, 0x00, 0x00, 0x00, 0x00, 
  0x00, 0x00, 0x00, 0x00, 0x00, 0x00, 0x00, 0x00, 0x00, 0x00, 0x00, 0x00, 
  0x00, 0x00, 0x00, 0x00, 0x00, 0x00, 0x00, 0x00, 0x00, 0x00, 0x00, 0x00, 
  0x00, 0x00, 0x00, 0x00, 0x00, 0x00, 0x00, 0x00, 0x00, 0x00, 0x00, 0x00, 
  0x00, 0x00, 0x00, 0x00, 0x00, 0x00, 0x00, 0x00, 0x00, 0x00, 0x00, 0x00, 
  0x00, 0x00, 0x00, 0x00, 0x00, 0x00, 0x00, 0x00, 0x00, 0x00, 0x00, 0x00, 
  0x00, 0x00, 0x00, 0x00, 0x00, 0x00, 0x00, 0x00, 0x00, 0x00, 0x00, 0x00, 
  0x00, 0x00, 0x00, 0x00, 0x00, 0x00, 0x00, 0x00, 0x00, 0x00, 0x00, 0x00, 
  0x00, 0x00, 0x00, 0x00, 0x00, 0x00, 0x00, 0x00, 0x00, 0x00, 0x00, 0x00, 
  0x00, 0x00, 0x00, 0x00, 0x00, 0x00, 0x00, 0x00, 0x00, 0x00, 0x00, 0x00, 
  0x00, 0x00, 0x00, 0x00, 0x00, 0x00, 0x00, 0x00, 0x00, 0x00, 0x00, 0x00, 
  0x00, 0x00, 0x00, 0x00, 0x00, 0x00, 0x00, 0x00, 0x00, 0x00, 0x00, 0x00, 
  0x00, 0x00, 0x00, 0x00, 0x00, 0x00, 0x00, 0x00, 0x00, 0x00, 0x00, 0x00, 
  0x00, 0x00, 0x00, 0x00, };
