#define over_width 128
#define over_height 64

static const unsigned char over_bits[] = {
  0x80, 0x0F, 0x00, 0x0F, 0xFC, 0xF0, 0xF3, 0xFF, 0x00, 0xF0, 0xC1, 0x87, 
  0xEF, 0xFF, 0xF9, 0x07, 0xE0, 0x3F, 0x80, 0x0F, 0xFE, 0xF8, 0xF3, 0x7F, 
  0x00, 0xFC, 0xC7, 0x87, 0xE7, 0xFF, 0xFC, 0x3F, 0xF0, 0x7F, 0xC0, 0x0F, 
  0xFE, 0xF8, 0xFB, 0x7F, 0x00, 0xFE, 0xCF, 0xC7, 0xF7, 0xFF, 0xFC, 0x3F, 
  0xF8, 0xFF, 0xC0, 0x0F, 0xFE, 0xFC, 0xFB, 0x7F, 0x00, 0xBF, 0x9F, 0xC7, 
  0xF3, 0xFF, 0xFC, 0x7F, 0x78, 0xF8, 0xE0, 0x1F, 0xFE, 0xFC, 0x79, 0x00, 
  0x00, 0x0F, 0x9F, 0xE7, 0xF1, 0x00, 0x3C, 0x7C, 0x7C, 0x00, 0xE0, 0x1F, 
  0xFE, 0xFE, 0xF9, 0x3F, 0x80, 0x0F, 0x9E, 0xE7, 0xF1, 0x7F, 0x3C, 0x3C, 
  0x3C, 0x00, 0xF0, 0x1E, 0xEF, 0xEE, 0xFD, 0x3F, 0x80, 0x07, 0x9E, 0xF7, 
  0xF8, 0x7F, 0xFE, 0x3F, 0x3C, 0xFC, 0xF8, 0x1E, 0xEF, 0xEE, 0xFD, 0x1F, 
  0x80, 0x07, 0x9E, 0xF7, 0xF8, 0x3F, 0xFE, 0x0F, 0x3C, 0x7E, 0x78, 0x1E, 
  0xEF, 0xF7, 0xFC, 0x1F, 0x80, 0x07, 0x9F, 0x7F, 0xF8, 0x3F, 0xFE, 0x0F, 
  0x3C, 0x78, 0xFC, 0x1F, 0xEF, 0xF7, 0x3C, 0x00, 0x80, 0x07, 0x9F, 0x7F, 
  0x78, 0x00, 0x1E, 0x1F, 0x7C, 0x7C, 0xFC, 0xBF, 0xEF, 0xF3, 0x3C, 0x00, 
  0x80, 0x8F, 0x8F, 0x3F, 0x78, 0x00, 0x1F, 0x1E, 0xFC, 0x7F, 0xFE, 0xBF, 
  0xE7, 0xF3, 0xFE, 0x1F, 0x80, 0xFF, 0x87, 0x3F, 0xFC, 0x3F, 0x1F, 0x1E, 
  0xF8, 0x3F, 0x1F, 0xBC, 0xE7, 0xF9, 0xFE, 0x1F, 0x00, 0xFF, 0x83, 0x1F, 
  0xFC, 0x3F, 0x0F, 0x1E, 0xF0, 0x3B, 0x0F, 0xBC, 0xE7, 0x79, 0xFE, 0x1F, 
  0x00, 0xFE, 0x01, 0x1F, 0xFC, 0x3F, 0x0F, 0x1E, 0x00, 0x00, 0x00, 0x00, 
  0x00, 0x00, 0x00, 0x00, 0x00, 0x00, 0x00, 0x00, 0x00, 0x00, 0x00, 0x00, 
  0x00, 0x00, 0x00, 0x00, 0x00, 0x00, 0x00, 0x00, 0x00, 0x00, 0x00, 0x00, 
  0x00, 0x00, 0x00, 0x00, 0x00, 0x00, 0x00, 0x00, 0x00, 0x00, 0x00, 0x00, 
  0x00, 0x00, 0x00, 0x00, 0x00, 0x00, 0x00, 0x00, 0x00, 0x00, 0x00, 0x00, 
  0x00, 0x00, 0x00, 0x00, 0x00, 0x00, 0x00, 0x00, 0x00, 0x00, 0x00, 0x00, 
  0x00, 0x00, 0x00, 0x00, 0x00, 0x00, 0x00, 0x00, 0x00, 0x00, 0x00, 0x00, 
  0x00, 0x00, 0x00, 0x00, 0x00, 0x00, 0x00, 0x00, 0x00, 0x00, 0x00, 0x00, 
  0x00, 0x00, 0x00, 0x00, 0x00, 0x00, 0x00, 0x00, 0x00, 0x00, 0x00, 0x00, 
  0x00, 0x00, 0x00, 0x00, 0x00, 0x00, 0x00, 0x00, 0x00, 0x00, 0x00, 0x00, 
  0x00, 0x00, 0x00, 0x00, 0x00, 0x00, 0x00, 0x00, 0x00, 0x00, 0x00, 0x00, 
  0x00, 0x00, 0x00, 0x00, 0x00, 0x00, 0x00, 0x00, 0x00, 0x00, 0x00, 0x00, 
  0x00, 0x00, 0x00, 0x00, 0x00, 0x00, 0x00, 0x00, 0x00, 0x00, 0x00, 0x00, 
  0x00, 0x00, 0x00, 0x00, 0x00, 0x00, 0x00, 0x00, 0x00, 0x00, 0x00, 0x00, 
  0xF8, 0x81, 0x0F, 0xF8, 0xC0, 0x3D, 0x3E, 0xF0, 0x00, 0x00, 0x00, 0x00, 
  0x00, 0x00, 0x00, 0x00, 0xFE, 0xE3, 0x3F, 0xFE, 0xE3, 0x9F, 0xFF, 0xF0, 
  0x00, 0x00, 0x00, 0x00, 0x00, 0x00, 0x00, 0x00, 0x9E, 0xF3, 0x3F, 0xFF, 
  0xE3, 0xDF, 0xF7, 0xF0, 0x00, 0x00, 0x00, 0x00, 0x00, 0x00, 0x00, 0x00, 
  0x1E, 0xF0, 0x38, 0x8F, 0xE7, 0xC3, 0xE3, 0x79, 0x00, 0x00, 0x00, 0x00, 
  0x00, 0x00, 0x00, 0x00, 0xFE, 0x79, 0x80, 0x87, 0xE7, 0xE1, 0xFF, 0x01, 
  0x00, 0x00, 0x00, 0x00, 0x00, 0x00, 0x00, 0x00, 0xFC, 0x7B, 0x80, 0x87, 
  0xE7, 0xE0, 0xFF, 0x01, 0x00, 0x00, 0x00, 0x00, 0x00, 0x00, 0x00, 0x00, 
  0xC0, 0x7B, 0xBC, 0xC7, 0xF3, 0xE0, 0x01, 0x78, 0x00, 0x00, 0x00, 0x00, 
  0x00, 0x00, 0x00, 0x00, 0xCF, 0xFB, 0x9E, 0xEF, 0xF3, 0xC0, 0xF1, 0x3C, 
  0x00, 0x00, 0x00, 0x00, 0x00, 0x00, 0x00, 0x00, 0xFF, 0xF1, 0x1F, 0xFF, 
  0xF1, 0xC0, 0x7F, 0x3C, 0x00, 0x00, 0x00, 0x00, 0x00, 0x00, 0x00, 0x00, 
  0xFE, 0xE0, 0x0F, 0xFE, 0xF0, 0x80, 0x3F, 0x3C, 0x00, 0x00, 0x00, 0x00, 
  0x00, 0x00, 0x00, 0x00, 0x00, 0x00, 0x00, 0x00, 0x00, 0x00, 0x00, 0x00, 
  0x00, 0x00, 0x00, 0x00, 0x00, 0x00, 0x00, 0x00, 0x00, 0x00, 0x00, 0x00, 
  0x00, 0x00, 0x00, 0x00, 0x00, 0x00, 0x00, 0x00, 0x00, 0x00, 0x00, 0x00, 
  0x78, 0x00, 0x00, 0x00, 0x00, 0x00, 0x00, 0x00, 0x00, 0x00, 0x00, 0x00, 
  0x00, 0x00, 0x00, 0x00, 0x3C, 0x00, 0x00, 0x00, 0x80, 0x07, 0x00, 0x00, 
  0x00, 0x00, 0x00, 0x00, 0x00, 0x00, 0x00, 0x00, 0x3C, 0x00, 0x00, 0x00, 
  0x80, 0x07, 0x00, 0x00, 0x00, 0x00, 0x00, 0x00, 0x00, 0x00, 0x00, 0x00, 
  0x3C, 0x00, 0x00, 0x00, 0x80, 0x07, 0x00, 0x00, 0x00, 0x00, 0x00, 0x00, 
  0x00, 0x00, 0x00, 0x00, 0xFC, 0x03, 0x3E, 0xF0, 0xE3, 0x8F, 0x07, 0x00, 
  0x00, 0x00, 0x00, 0x00, 0x00, 0x00, 0x00, 0x00, 0xFC, 0x87, 0xFF, 0xFC, 
  0xF7, 0x8F, 0x07, 0x00, 0x00, 0x00, 0x00, 0x00, 0x00, 0x00, 0x00, 0x00, 
  0xFE, 0xCF, 0xF7, 0x3C, 0xF7, 0x8F, 0x07, 0x00, 0x00, 0x00, 0x00, 0x00, 
  0x00, 0x00, 0x00, 0x00, 0x1E, 0xCF, 0xE3, 0x3D, 0xC0, 0xC3, 0x03, 0x00, 
  0x00, 0x00, 0x00, 0x00, 0x00, 0x00, 0x00, 0x00, 0x1E, 0xEF, 0xFF, 0xFD, 
  0xE3, 0x01, 0x00, 0x00, 0x00, 0x00, 0x00, 0x00, 0x00, 0x00, 0x00, 0x00, 
  0x1E, 0xEF, 0xFF, 0xF9, 0xE7, 0x01, 0x00, 0x00, 0x00, 0x00, 0x00, 0x00, 
  0x00, 0x00, 0x00, 0x00, 0x9F, 0xEF, 0x01, 0x80, 0xE7, 0xC1, 0x03, 0x00, 
  0x00, 0x00, 0x00, 0x00, 0x00, 0x00, 0x00, 0x00, 0xFF, 0xC7, 0xF1, 0x9E, 
  0xE7, 0xE7, 0x01, 0x00, 0x00, 0x00, 0x00, 0x00, 0x00, 0x00, 0x00, 0x00, 
  0xFF, 0xC7, 0x7F, 0xFE, 0xE3, 0xE7, 0x01, 0x00, 0x00, 0x00, 0x00, 0x00, 
  0x00, 0x00, 0x00, 0x00, 0xFF, 0x81, 0x3F, 0xFC, 0xE1, 0xE7, 0x01, 0x00, 
  0x00, 0x00, 0x00, 0x00, 0x00, 0x00, 0x00, 0x00, 0x00, 0x00, 0x00, 0x00, 
  0x00, 0x00, 0x00, 0x00, 0x00, 0x00, 0x00, 0x00, 0x00, 0x00, 0x00, 0x00, 
  0x00, 0x00, 0x00, 0x00, 0x00, 0x00, 0x00, 0x00, 0x00, 0x00, 0x00, 0x00, 
  0x00, 0x00, 0x00, 0x00, 0x00, 0x00, 0x00, 0x00, 0x00, 0x00, 0x00, 0x00, 
  0x00, 0x00, 0x00, 0x00, 0x00, 0x00, 0x00, 0x00, 0x00, 0x00, 0x00, 0x00, 
  0x00, 0x00, 0x00, 0x00, 0x00, 0x00, 0x00, 0x00, 0x00, 0x00, 0x00, 0x00, 
  0x00, 0x00, 0x00, 0x00, 0x00, 0x00, 0x00, 0x00, 0x00, 0x00, 0x00, 0x00, 
  0x00, 0x00, 0x00, 0x00, 0x00, 0x00, 0x00, 0x00, 0x00, 0x00, 0x00, 0x00, 
  0x00, 0x00, 0x00, 0x00, 0x00, 0x00, 0x00, 0x00, 0x00, 0x00, 0x00, 0x00, 
  0x00, 0x00, 0x00, 0x00, 0x00, 0x00, 0x00, 0x00, 0x00, 0x00, 0x00, 0x00, 
  0x00, 0x00, 0x00, 0x00, 0x00, 0x00, 0x00, 0x00, 0x00, 0x00, 0x00, 0x00, 
  0x00, 0x00, 0x00, 0x00, 0x00, 0x00, 0x00, 0x00, 0x00, 0x00, 0x00, 0x00, 
  0x00, 0x00, 0x00, 0x00, 0x00, 0x00, 0x00, 0x00, 0x00, 0x00, 0x00, 0x00, 
  0x00, 0x00, 0x00, 0x00, 0x00, 0x00, 0x00, 0x00, 0x00, 0x00, 0x00, 0x00, 
  0x00, 0x00, 0x00, 0x00, 0x00, 0x00, 0x00, 0x00, 0x00, 0x00, 0x00, 0x00, 
  0x00, 0x00, 0x00, 0x00, 0x00, 0x00, 0x00, 0x00, 0x00, 0x00, 0x00, 0x00, 
  0x00, 0x00, 0x00, 0x00, 0x00, 0x00, 0x00, 0x00, 0x00, 0x00, 0x00, 0x00, 
  0x00, 0x00, 0x00, 0x00, 0x00, 0x00, 0x00, 0x00, 0x00, 0x00, 0x00, 0x00, 
  0x00, 0x00, 0x00, 0x00, 0x00, 0x00, 0x00, 0x00, 0x00, 0x00, 0x00, 0x00, 
  0x00, 0x00, 0x00, 0x00, };
