#define overru_width 128
#define overru_height 64

static const unsigned char overru_bits[] = {
  0x00, 0x00, 0x00, 0x00, 0x00, 0x00, 0x00, 0x00, 0x00, 0x00, 0x00, 0x00, 
  0x00, 0x00, 0x00, 0x00, 0x78, 0x7C, 0xF8, 0x81, 0xC7, 0xF3, 0x3F, 0x8F, 
  0x07, 0x3E, 0x7E, 0xFE, 0xF3, 0x0F, 0x0F, 0x70, 0x78, 0x3E, 0xFC, 0x87, 
  0xC7, 0xF3, 0x3F, 0x8F, 0x07, 0x3E, 0x7E, 0xFE, 0xF3, 0x1F, 0x0F, 0x70, 
  0x78, 0x1F, 0xFE, 0x87, 0xC7, 0xF3, 0x3F, 0x8F, 0x07, 0x3E, 0x7F, 0xFE, 
  0xF3, 0x3F, 0x0F, 0x78, 0xB8, 0x0F, 0x1E, 0x8F, 0xC3, 0x73, 0x00, 0x8F, 
  0x07, 0x9E, 0x7F, 0x0E, 0x70, 0x3C, 0x07, 0x78, 0xFC, 0x07, 0x0F, 0xCF, 
  0xC3, 0x79, 0x00, 0x87, 0x03, 0xDF, 0x3F, 0x0F, 0x78, 0xBC, 0x3F, 0x78, 
  0xFC, 0x03, 0x0F, 0xCF, 0xFF, 0xF9, 0x9F, 0xC7, 0x03, 0xDF, 0x3F, 0x0F, 
  0x78, 0xBC, 0xFF, 0x38, 0xFC, 0x03, 0x07, 0xCF, 0xFF, 0xF9, 0x9F, 0xC7, 
  0x03, 0xFF, 0x3F, 0x0F, 0xF8, 0x9F, 0xFF, 0x38, 0xFC, 0x03, 0x07, 0xCF, 
  0xFF, 0xF9, 0x8F, 0xC7, 0x03, 0xFF, 0x3E, 0x0F, 0xF8, 0x9F, 0xE7, 0x3D, 
  0xBC, 0x07, 0x07, 0xC7, 0xE1, 0x39, 0x80, 0xC7, 0x83, 0x7F, 0x3E, 0x07, 
  0xF8, 0x87, 0xE3, 0x3D, 0x9E, 0x07, 0x8F, 0xE7, 0xE1, 0x3C, 0x80, 0xC3, 
  0x81, 0x3F, 0x9F, 0x07, 0x3C, 0xC0, 0xE3, 0x3D, 0x1E, 0x0F, 0xFF, 0xE7, 
  0xF1, 0xFC, 0xCF, 0xFF, 0x83, 0x3F, 0x9F, 0x07, 0x3C, 0xC0, 0xFF, 0x1C, 
  0x1E, 0x0F, 0xFE, 0xE3, 0xF1, 0xFC, 0xCF, 0xFF, 0x83, 0x1F, 0x9F, 0x07, 
  0x3C, 0xC0, 0x7F, 0x1C, 0x1E, 0x1E, 0xFC, 0xE0, 0xF1, 0xFC, 0xCF, 0xFF, 
  0x83, 0x0F, 0x9F, 0x07, 0x3C, 0xC0, 0x3F, 0x1E, 0x00, 0x00, 0x00, 0x00, 
  0x00, 0x00, 0x00, 0x80, 0x03, 0x00, 0x00, 0x00, 0x00, 0x00, 0x00, 0x00, 
  0x00, 0x00, 0x00, 0x00, 0x00, 0x00, 0x00, 0xC0, 0x03, 0x00, 0x00, 0x00, 
  0x00, 0x00, 0x00, 0x00, 0x00, 0x00, 0x00, 0x00, 0x00, 0x00, 0x00, 0xC0, 
  0x03, 0x00, 0x00, 0x00, 0x00, 0x00, 0x00, 0x00, 0x00, 0x00, 0x00, 0x00, 
  0x00, 0x00, 0x00, 0x00, 0x00, 0x00, 0x00, 0x00, 0x00, 0x00, 0x00, 0x00, 
  0x00, 0x00, 0x00, 0x00, 0x00, 0x00, 0x00, 0x00, 0x00, 0x00, 0x00, 0x00, 
  0x00, 0x00, 0x00, 0x00, 0x00, 0x00, 0x00, 0x00, 0x00, 0x00, 0x00, 0x00, 
  0x00, 0x00, 0x00, 0x00, 0x00, 0x00, 0x00, 0x00, 0x00, 0x00, 0x00, 0x00, 
  0x00, 0x00, 0x00, 0x00, 0x00, 0x00, 0x00, 0x00, 0x00, 0x00, 0x00, 0x00, 
  0x00, 0x00, 0x00, 0x00, 0x00, 0x00, 0x00, 0x00, 0x00, 0x00, 0x00, 0x00, 
  0x00, 0x00, 0x00, 0x00, 0x00, 0x00, 0x00, 0x00, 0x00, 0x00, 0x00, 0x00, 
  0x00, 0x00, 0x00, 0x00, 0x00, 0x00, 0x00, 0x00, 0x00, 0x00, 0x00, 0x00, 
  0x00, 0x00, 0x00, 0x00, 0x00, 0x00, 0x00, 0x00, 0x00, 0x00, 0x00, 0x00, 
  0x00, 0x00, 0x3F, 0x9E, 0xC7, 0x0F, 0xFF, 0xF3, 0x00, 0x00, 0x00, 0x00, 
  0x00, 0x00, 0x00, 0x00, 0x00, 0x80, 0x7F, 0x9E, 0xE7, 0x1F, 0xFF, 0xF3, 
  0x00, 0x00, 0x00, 0x00, 0x00, 0x00, 0x00, 0x00, 0x00, 0xC0, 0xFF, 0x9E, 
  0xF7, 0xBC, 0xFF, 0x79, 0x00, 0x00, 0x00, 0x00, 0x00, 0x00, 0x00, 0x00, 
  0x00, 0xC0, 0xF1, 0x9E, 0x77, 0x38, 0x3C, 0x78, 0x00, 0x00, 0x00, 0x00, 
  0x00, 0x00, 0x00, 0x00, 0x00, 0xE0, 0x01, 0xFE, 0xFB, 0x3F, 0x3C, 0x00, 
  0x00, 0x00, 0x00, 0x00, 0x00, 0x00, 0x00, 0x00, 0x00, 0xE0, 0x01, 0xFE, 
  0xFB, 0x3F, 0x3C, 0x00, 0x00, 0x00, 0x00, 0x00, 0x00, 0x00, 0x00, 0x00, 
  0x00, 0xE0, 0x71, 0xDC, 0x7B, 0x00, 0x1C, 0x78, 0x00, 0x00, 0x00, 0x00, 
  0x00, 0x00, 0x00, 0x00, 0x00, 0xE0, 0x79, 0xC0, 0x73, 0x1C, 0x1C, 0x3C, 
  0x00, 0x00, 0x00, 0x00, 0x00, 0x00, 0x00, 0x00, 0x00, 0xC0, 0x3F, 0xC0, 
  0xF3, 0x1F, 0x1E, 0x3C, 0x00, 0x00, 0x00, 0x00, 0x00, 0x00, 0x00, 0x00, 
  0x00, 0x80, 0x1F, 0xC0, 0xE1, 0x0F, 0x1E, 0x3C, 0x00, 0x00, 0x00, 0x00, 
  0x00, 0x00, 0x00, 0x00, 0x00, 0x00, 0x00, 0x00, 0x00, 0x00, 0x00, 0x00, 
  0x00, 0x00, 0x00, 0x00, 0x00, 0x00, 0x00, 0x00, 0x00, 0x00, 0x00, 0x00, 
  0x00, 0x00, 0x00, 0x00, 0x00, 0x00, 0x00, 0x00, 0x00, 0x00, 0x00, 0x00, 
  0x00, 0x00, 0x00, 0x00, 0x00, 0x00, 0x00, 0x00, 0x00, 0x00, 0x00, 0x00, 
  0x00, 0x00, 0x00, 0x00, 0x00, 0x00, 0x00, 0x00, 0x00, 0x00, 0x00, 0x00, 
  0x00, 0x00, 0x00, 0x00, 0x00, 0x00, 0x00, 0x00, 0x00, 0x00, 0x00, 0x00, 
  0x00, 0x00, 0x00, 0x00, 0x00, 0x00, 0x00, 0x00, 0x00, 0x00, 0x00, 0x00, 
  0xF0, 0x77, 0xDC, 0x39, 0xE7, 0x9C, 0x07, 0x00, 0x00, 0x00, 0x00, 0x00, 
  0x00, 0x00, 0x00, 0x00, 0xF0, 0x77, 0xDE, 0x39, 0xE7, 0x9C, 0x07, 0x00, 
  0x00, 0x00, 0x00, 0x00, 0x00, 0x00, 0x00, 0x00, 0xF0, 0xE7, 0xCE, 0x39, 
  0xE7, 0x9C, 0x03, 0x00, 0x00, 0x00, 0x00, 0x00, 0x00, 0x00, 0x00, 0x00, 
  0x38, 0xE7, 0xCE, 0x39, 0xE7, 0x9C, 0x03, 0x00, 0x00, 0x00, 0x00, 0x00, 
  0x00, 0x00, 0x00, 0x00, 0x38, 0xE7, 0xC7, 0x3F, 0xE7, 0x1C, 0x00, 0x00, 
  0x00, 0x00, 0x00, 0x00, 0x00, 0x00, 0x00, 0x00, 0x38, 0xE7, 0xC7, 0xBF, 
  0x77, 0x0E, 0x00, 0x00, 0x00, 0x00, 0x00, 0x00, 0x00, 0x00, 0x00, 0x00, 
  0x38, 0xE7, 0x83, 0x9D, 0x73, 0xCE, 0x03, 0x00, 0x00, 0x00, 0x00, 0x00, 
  0x00, 0x00, 0x00, 0x00, 0x9E, 0xE7, 0x03, 0x9C, 0xFF, 0xCF, 0x03, 0x00, 
  0x00, 0x00, 0x00, 0x00, 0x00, 0x00, 0x00, 0x00, 0x9E, 0xC3, 0x03, 0x9C, 
  0xFF, 0xCF, 0x01, 0x00, 0x00, 0x00, 0x00, 0x00, 0x00, 0x00, 0x00, 0x00, 
  0x8E, 0xC3, 0x01, 0x9C, 0xFF, 0xCF, 0x01, 0x00, 0x00, 0x00, 0x00, 0x00, 
  0x00, 0x00, 0x00, 0x00, 0x00, 0xF0, 0x01, 0x00, 0x00, 0x00, 0x00, 0x00, 
  0x00, 0x00, 0x00, 0x00, 0x00, 0x00, 0x00, 0x00, 0x00, 0xF8, 0x00, 0x00, 
  0x00, 0x00, 0x00, 0x00, 0x00, 0x00, 0x00, 0x00, 0x00, 0x00, 0x00, 0x00, 
  0x00, 0xF8, 0x00, 0x00, 0x00, 0x00, 0x00, 0x00, 0x00, 0x00, 0x00, 0x00, 
  0x00, 0x00, 0x00, 0x00, 0x00, 0x00, 0x00, 0x00, 0x00, 0x00, 0x00, 0x00, 
  0x00, 0x00, 0x00, 0x00, 0x00, 0x00, 0x00, 0x00, 0x00, 0x00, 0x00, 0x00, 
  0x00, 0x00, 0x00, 0x00, 0x00, 0x00, 0x00, 0x00, 0x00, 0x00, 0x00, 0x00, 
  0x00, 0x00, 0x00, 0x00, 0x00, 0x00, 0x00, 0x00, 0x00, 0x00, 0x00, 0x00, 
  0x00, 0x00, 0x00, 0x00, 0x00, 0x00, 0x00, 0x00, 0x00, 0x00, 0x00, 0x00, 
  0x00, 0x00, 0x00, 0x00, 0x00, 0x00, 0x00, 0x00, 0x00, 0x00, 0x00, 0x00, 
  0x00, 0x00, 0x00, 0x00, 0x00, 0x00, 0x00, 0x00, 0x00, 0x00, 0x00, 0x00, 
  0x00, 0x00, 0x00, 0x00, 0x00, 0x00, 0x00, 0x00, 0x00, 0x00, 0x00, 0x00, 
  0x00, 0x00, 0x00, 0x00, 0x00, 0x00, 0x00, 0x00, 0x00, 0x00, 0x00, 0x00, 
  0x00, 0x00, 0x00, 0x00, 0x00, 0x00, 0x00, 0x00, 0x00, 0x00, 0x00, 0x00, 
  0x00, 0x00, 0x00, 0x00, 0x00, 0x00, 0x00, 0x00, 0x00, 0x00, 0x00, 0x00, 
  0x00, 0x00, 0x00, 0x00, 0x00, 0x00, 0x00, 0x00, 0x00, 0x00, 0x00, 0x00, 
  0x00, 0x00, 0x00, 0x00, 0x00, 0x00, 0x00, 0x00, 0x00, 0x00, 0x00, 0x00, 
  0x00, 0x00, 0x00, 0x00, 0x00, 0x00, 0x00, 0x00, 0x00, 0x00, 0x00, 0x00, 
  0x00, 0x00, 0x00, 0x00, 0x00, 0x00, 0x00, 0x00, 0x00, 0x00, 0x00, 0x00, 
  0x00, 0x00, 0x00, 0x00, 0x00, 0x00, 0x00, 0x00, 0x00, 0x00, 0x00, 0x00, 
  0x00, 0x00, 0x00, 0x00, };
