#define ready1ru_width 128
#define ready1ru_height 64

static const unsigned char ready1ru_bits[] = {
  0x00, 0x00, 0x00, 0x00, 0x00, 0x00, 0x00, 0x00, 0x00, 0x00, 0x00, 0x00, 
  0x00, 0x00, 0x00, 0x00, 0x00, 0x00, 0x00, 0x00, 0x00, 0x00, 0x00, 0x00, 
  0x00, 0x00, 0x00, 0x00, 0x00, 0x00, 0x00, 0x00, 0x00, 0x00, 0x00, 0x00, 
  0x00, 0x00, 0x00, 0x00, 0x00, 0x00, 0x00, 0x00, 0x00, 0x00, 0x00, 0x00, 
  0x00, 0xFF, 0x7F, 0xC0, 0xFF, 0xC0, 0xFF, 0xFF, 0x80, 0xFF, 0x01, 0xFC, 
  0xFF, 0x00, 0xFF, 0x01, 0x00, 0xFF, 0x7F, 0xF0, 0xFF, 0xC1, 0xFF, 0xFF, 
  0xE0, 0xFF, 0x03, 0xFC, 0xFF, 0x81, 0xFF, 0x07, 0x80, 0xFF, 0x7F, 0xF8, 
  0xFF, 0xC3, 0xFF, 0xFF, 0xF0, 0xFF, 0x07, 0xFE, 0xFF, 0xC3, 0xFF, 0x0F, 
  0x80, 0xFF, 0x7F, 0xFC, 0xFF, 0xC7, 0xFF, 0xFF, 0xF8, 0xFF, 0x0F, 0xFE, 
  0xFF, 0xE7, 0xFF, 0x0F, 0x80, 0xFF, 0x7F, 0xFE, 0xFB, 0xC7, 0xFF, 0x7F, 
  0xFC, 0xF7, 0x0F, 0xFE, 0xFF, 0xE7, 0xC7, 0x0F, 0x80, 0x1F, 0x00, 0xFF, 
  0xE0, 0x0F, 0xF8, 0x03, 0xFE, 0xC1, 0x1F, 0x7E, 0xF0, 0xF7, 0xC3, 0x0F, 
  0x80, 0x1F, 0x00, 0x7F, 0xE0, 0x0F, 0xF8, 0x01, 0xFE, 0xC0, 0x1F, 0x7E, 
  0xF0, 0x03, 0xC0, 0x0F, 0xC0, 0x1F, 0x00, 0x3F, 0xC0, 0x0F, 0xF8, 0x01, 
  0x7E, 0x80, 0x1F, 0x3F, 0xF8, 0x03, 0xF0, 0x07, 0xC0, 0x1F, 0x80, 0x3F, 
  0xC0, 0x0F, 0xF8, 0x01, 0x7F, 0x80, 0x1F, 0xFF, 0xFF, 0x01, 0xFC, 0x07, 
  0xC0, 0x0F, 0x80, 0x3F, 0xC0, 0x0F, 0xFC, 0x01, 0x7F, 0x80, 0x1F, 0xFF, 
  0xFF, 0x00, 0xFE, 0x01, 0xC0, 0x0F, 0x80, 0x1F, 0xE0, 0x0F, 0xFC, 0x00, 
  0x3F, 0xC0, 0x1F, 0xFF, 0xFF, 0x01, 0x7F, 0x00, 0xC0, 0x0F, 0x80, 0x1F, 
  0xE0, 0x0F, 0xFC, 0x00, 0x3F, 0xC0, 0x9F, 0xFF, 0xFF, 0x01, 0x1F, 0x00, 
  0xE0, 0x0F, 0x80, 0x1F, 0xE0, 0x07, 0xFC, 0x00, 0x3F, 0xC0, 0x8F, 0x1F, 
  0xF8, 0x03, 0x1F, 0x00, 0xE0, 0x07, 0x80, 0x3F, 0xF0, 0x07, 0xFE, 0x00, 
  0x7F, 0xE0, 0x8F, 0x1F, 0xF0, 0x03, 0x00, 0x00, 0xE0, 0x07, 0x80, 0x3F, 
  0xF8, 0x07, 0xFE, 0x00, 0x7F, 0xF0, 0x8F, 0x1F, 0xF8, 0x03, 0x00, 0x00, 
  0xE0, 0x07, 0x00, 0xFF, 0xFC, 0x03, 0x7E, 0x00, 0xFE, 0xF9, 0x87, 0xFF, 
  0xFF, 0x81, 0x1F, 0x00, 0xF0, 0x07, 0x00, 0xFF, 0xFF, 0x01, 0x7E, 0x00, 
  0xFE, 0xFF, 0xC3, 0xFF, 0xFF, 0x81, 0x0F, 0x00, 0xF0, 0x07, 0x00, 0xFE, 
  0xFF, 0x00, 0x7E, 0x00, 0xFC, 0xFF, 0xC1, 0xFF, 0xFF, 0xC0, 0x0F, 0x00, 
  0xF0, 0x03, 0x00, 0xFC, 0x7F, 0x00, 0x7F, 0x00, 0xF8, 0xFF, 0xC0, 0xFF, 
  0x7F, 0xC0, 0x0F, 0x00, 0xF0, 0x03, 0x00, 0xF0, 0x1F, 0x00, 0x3F, 0x00, 
  0xE0, 0x3F, 0xC0, 0xFF, 0x1F, 0xC0, 0x0F, 0x00, 0x00, 0x00, 0x00, 0x00, 
  0x00, 0x00, 0x00, 0x00, 0x00, 0x00, 0x00, 0x00, 0x00, 0x00, 0x00, 0x00, 
  0x00, 0x00, 0x00, 0x00, 0x00, 0x00, 0x00, 0x00, 0x00, 0x00, 0x00, 0x00, 
  0x00, 0x00, 0x00, 0x00, 0x00, 0x00, 0x00, 0x00, 0x00, 0x00, 0x00, 0x00, 
  0x00, 0x00, 0x00, 0x00, 0x00, 0x00, 0x00, 0x00, 0x00, 0x00, 0x00, 0x00, 
  0x00, 0x00, 0x00, 0x00, 0x00, 0x00, 0x00, 0x00, 0x00, 0x00, 0x00, 0x00, 
  0x00, 0x00, 0x00, 0x00, 0x00, 0x00, 0x00, 0x00, 0x00, 0x00, 0x00, 0x00, 
  0x00, 0x00, 0x00, 0x00, 0x00, 0x00, 0x00, 0x00, 0x00, 0x00, 0x00, 0x00, 
  0x00, 0x00, 0x00, 0x00, 0x00, 0x00, 0x00, 0x00, 0x00, 0x00, 0x00, 0x00, 
  0x00, 0x00, 0x00, 0x00, 0x00, 0x00, 0x00, 0x00, 0x00, 0x00, 0x00, 0x00, 
  0x00, 0x00, 0x00, 0x00, 0x00, 0x00, 0x00, 0x00, 0x00, 0x00, 0x00, 0x00, 
  0x00, 0x00, 0x00, 0x00, 0x00, 0x00, 0x00, 0x00, 0x00, 0x00, 0x00, 0x00, 
  0x00, 0x00, 0x00, 0x00, 0x00, 0x00, 0x00, 0x00, 0x00, 0x00, 0x00, 0x00, 
  0x00, 0x00, 0x00, 0x00, 0xF8, 0x01, 0x00, 0x00, 0x00, 0x00, 0x00, 0x00, 
  0x00, 0x00, 0x00, 0x00, 0x00, 0x00, 0x00, 0x00, 0xFC, 0x00, 0x00, 0x00, 
  0x00, 0x00, 0x00, 0x00, 0x00, 0x00, 0x00, 0x00, 0x00, 0x00, 0x00, 0x00, 
  0xFE, 0x00, 0x00, 0x00, 0x00, 0x00, 0x00, 0x00, 0x00, 0x00, 0x00, 0x00, 
  0x00, 0x00, 0x00, 0x00, 0xFF, 0x00, 0x00, 0x00, 0x00, 0x00, 0x00, 0x00, 
  0x00, 0x00, 0x00, 0x00, 0x00, 0x00, 0x00, 0x80, 0xFF, 0x00, 0x00, 0x00, 
  0x00, 0x00, 0x00, 0x00, 0x00, 0x00, 0x00, 0x00, 0x00, 0x00, 0x00, 0xFC, 
  0xFF, 0x00, 0x00, 0x00, 0x00, 0x00, 0x00, 0x00, 0x00, 0x00, 0x00, 0x00, 
  0x00, 0x00, 0x00, 0xFC, 0x7F, 0x00, 0x00, 0x00, 0x00, 0x00, 0x00, 0x00, 
  0x00, 0x00, 0x00, 0x00, 0x00, 0x00, 0x00, 0xFC, 0x7F, 0x00, 0x00, 0x00, 
  0x00, 0x00, 0x00, 0x00, 0x00, 0x00, 0x00, 0x00, 0x00, 0x00, 0x00, 0xFE, 
  0x7F, 0x00, 0x00, 0x00, 0x00, 0x00, 0x00, 0x00, 0x00, 0x00, 0x00, 0x00, 
  0x00, 0x00, 0x00, 0xFE, 0x7F, 0x00, 0x00, 0x00, 0x00, 0x00, 0x00, 0x00, 
  0x00, 0x00, 0x00, 0x00, 0x00, 0x00, 0x00, 0xFE, 0x7F, 0x00, 0x00, 0x00, 
  0x00, 0x00, 0x00, 0x00, 0x00, 0x00, 0x00, 0x00, 0x00, 0x00, 0x00, 0x80, 
  0x3F, 0x00, 0x00, 0x00, 0x00, 0x00, 0x00, 0x00, 0x00, 0x00, 0x00, 0x00, 
  0x00, 0x00, 0x00, 0xC0, 0x3F, 0x00, 0x00, 0x00, 0x00, 0x00, 0x00, 0x00, 
  0x00, 0x00, 0x00, 0x00, 0x00, 0x00, 0x00, 0xC0, 0x3F, 0x00, 0x00, 0x00, 
  0x00, 0x00, 0x00, 0x00, 0x00, 0x00, 0x00, 0x00, 0x00, 0x00, 0x00, 0xC0, 
  0x3F, 0x00, 0x00, 0x00, 0x00, 0x00, 0x00, 0x00, 0x00, 0x00, 0x00, 0x00, 
  0x00, 0x00, 0x00, 0xC0, 0x3F, 0x00, 0x00, 0x00, 0x00, 0x00, 0x00, 0x00, 
  0x00, 0x00, 0x00, 0x00, 0x00, 0x00, 0x00, 0xC0, 0x1F, 0x00, 0x00, 0x00, 
  0x00, 0x00, 0x00, 0x00, 0x00, 0x00, 0x00, 0x00, 0x00, 0x00, 0x00, 0xE0, 
  0x1F, 0x00, 0x00, 0x00, 0x00, 0x00, 0x00, 0x00, 0x00, 0x00, 0x00, 0x00, 
  0x00, 0x00, 0x00, 0xE0, 0x1F, 0x00, 0x00, 0x00, 0x00, 0x00, 0x00, 0x00, 
  0x00, 0x00, 0x00, 0x00, 0x00, 0x00, 0x00, 0xE0, 0x1F, 0x00, 0x00, 0x00, 
  0x00, 0x00, 0x00, 0x00, 0x00, 0x00, 0x00, 0x00, 0x00, 0x00, 0x00, 0xE0, 
  0x0F, 0x00, 0x00, 0x00, 0x00, 0x00, 0x00, 0x00, 0x00, 0x00, 0x00, 0x00, 
  0x00, 0x00, 0x00, 0xE0, 0x0F, 0x00, 0x00, 0x00, 0x00, 0x00, 0x00, 0x00, 
  0x00, 0x00, 0x00, 0x00, 0x00, 0x00, 0x00, 0xF0, 0x0F, 0x00, 0x00, 0x00, 
  0x00, 0x00, 0x00, 0x00, 0x00, 0x00, 0x00, 0x00, 0x00, 0x00, 0x00, 0xF0, 
  0x0F, 0x00, 0x00, 0x00, 0x00, 0x00, 0x00, 0x00, 0x00, 0x00, 0x00, 0x00, 
  0x00, 0x00, 0x00, 0xF0, 0x0F, 0x00, 0x00, 0x00, 0x00, 0x00, 0x00, 0x00, 
  0x00, 0x00, 0x00, 0x00, 0x00, 0x00, 0x00, 0xF0, 0x07, 0x00, 0x00, 0x00, 
  0x00, 0x00, 0x00, 0x00, 0x00, 0x00, 0x00, 0x00, 0x00, 0x00, 0x00, 0x00, 
  0x00, 0x00, 0x00, 0x00, 0x00, 0x00, 0x00, 0x00, 0x00, 0x00, 0x00, 0x00, 
  0x00, 0x00, 0x00, 0x00, 0x00, 0x00, 0x00, 0x00, 0x00, 0x00, 0x00, 0x00, 
  0x00, 0x00, 0x00, 0x00, 0x00, 0x00, 0x00, 0x00, 0x00, 0x00, 0x00, 0x00, 
  0x00, 0x00, 0x00, 0x00, 0x00, 0x00, 0x00, 0x00, 0x00, 0x00, 0x00, 0x00, 
  0x00, 0x00, 0x00, 0x00, 0x00, 0x00, 0x00, 0x00, 0x00, 0x00, 0x00, 0x00, 
  0x00, 0x00, 0x00, 0x00, 0x00, 0x00, 0x00, 0x00, 0x00, 0x00, 0x00, 0x00, 
  0x00, 0x00, 0x00, 0x00, 0x00, 0x00, 0x00, 0x00, 0x00, 0x00, 0x00, 0x00, 
  0x00, 0x00, 0x00, 0x00, };
