#define ready_2_width 128
#define ready_2_height 64

static const unsigned char ready_2_bits[] = {
  0x00, 0x00, 0x00, 0x00, 0x00, 0x00, 0x00, 0x00, 0x00, 0x00, 0x00, 0x00, 
  0x00, 0x00, 0x00, 0x00, 0x00, 0x00, 0x00, 0x00, 0x00, 0x00, 0x00, 0x00, 
  0x00, 0x00, 0x00, 0x00, 0x00, 0x00, 0x00, 0x00, 0x00, 0x00, 0x00, 0x00, 
  0x00, 0x00, 0x00, 0x00, 0x00, 0x00, 0x00, 0x00, 0x00, 0x00, 0x00, 0x00, 
  0xE0, 0xFF, 0x07, 0xF0, 0xFF, 0x3F, 0x80, 0x3F, 0xC0, 0xFF, 0x07, 0xF8, 
  0x01, 0xFF, 0xF8, 0x0F, 0xE0, 0xFF, 0x1F, 0xF0, 0xFF, 0x3F, 0xC0, 0x3F, 
  0xC0, 0xFF, 0x1F, 0xF8, 0x81, 0x7F, 0xFE, 0x1F, 0xF0, 0xFF, 0x3F, 0xF0, 
  0xFF, 0x1F, 0xE0, 0x3F, 0xC0, 0xFF, 0x3F, 0xF8, 0x83, 0x3F, 0xFF, 0x3F, 
  0xF0, 0xFF, 0x7F, 0xF8, 0xFF, 0x1F, 0xE0, 0x3F, 0xE0, 0xFF, 0x7F, 0xF0, 
  0xC3, 0x9F, 0xFF, 0x7F, 0xF0, 0xFF, 0x7F, 0xF8, 0xFF, 0x1F, 0xF0, 0x3F, 
  0xE0, 0xFF, 0xFF, 0xF0, 0xE3, 0x8F, 0x1F, 0x7F, 0xF0, 0x03, 0x7F, 0xF8, 
  0x01, 0x00, 0xF0, 0x3F, 0xE0, 0x07, 0xFF, 0xF0, 0xE7, 0xCF, 0x1F, 0x7F, 
  0xF0, 0x03, 0x7F, 0xF8, 0x01, 0x00, 0xF8, 0x7F, 0xE0, 0x07, 0xFE, 0xE0, 
  0xF7, 0x07, 0x00, 0x3F, 0xF8, 0x03, 0x3F, 0xFC, 0xFF, 0x07, 0xFC, 0x7E, 
  0xF0, 0x07, 0xFC, 0xE0, 0xFF, 0x03, 0xC0, 0x3F, 0xF8, 0x83, 0x3F, 0xFC, 
  0xFF, 0x07, 0xFC, 0x7E, 0xF0, 0x07, 0xFC, 0xC0, 0xFF, 0x01, 0xF0, 0x1F, 
  0xF8, 0xFF, 0x1F, 0xFC, 0xFF, 0x07, 0x7E, 0x7E, 0xF0, 0x03, 0xFC, 0xC0, 
  0xFF, 0x00, 0xF8, 0x0F, 0xF8, 0xFF, 0x07, 0xFC, 0xFF, 0x07, 0x7F, 0x7E, 
  0xF0, 0x03, 0xFC, 0xC0, 0xFF, 0x00, 0xFC, 0x01, 0xFC, 0xFF, 0x07, 0xFC, 
  0xFF, 0x03, 0x3F, 0x7E, 0xF0, 0x03, 0xFE, 0x80, 0x7F, 0x00, 0xFC, 0x00, 
  0xFC, 0xFF, 0x0F, 0xFE, 0x00, 0x80, 0x3F, 0xFE, 0xF8, 0x03, 0xFE, 0x80, 
  0x3F, 0x00, 0x7C, 0x00, 0xFC, 0xE0, 0x0F, 0xFE, 0x00, 0x80, 0xFF, 0xFF, 
  0xF8, 0x03, 0x7F, 0x80, 0x1F, 0x00, 0x00, 0x00, 0xFC, 0xC0, 0x0F, 0x7E, 
  0x00, 0xC0, 0xFF, 0xFF, 0xF8, 0x81, 0x7F, 0x80, 0x1F, 0x00, 0x00, 0x00, 
  0xFC, 0xC0, 0x0F, 0xFE, 0xFF, 0xE7, 0xFF, 0xFF, 0xF8, 0xFF, 0x3F, 0x80, 
  0x1F, 0x00, 0x7E, 0x00, 0xFE, 0xC0, 0x0F, 0xFF, 0xFF, 0xE3, 0xFF, 0xFF, 
  0xFC, 0xFF, 0x1F, 0xC0, 0x1F, 0x00, 0x7E, 0x00, 0xFE, 0xC0, 0x0F, 0xFF, 
  0xFF, 0xF3, 0x07, 0xFC, 0xFC, 0xFF, 0x0F, 0xC0, 0x1F, 0x00, 0x3F, 0x00, 
  0x7E, 0xC0, 0x0F, 0xFF, 0xFF, 0xFB, 0x03, 0xFC, 0xFD, 0xFF, 0x07, 0xC0, 
  0x0F, 0x00, 0x3F, 0x00, 0x7E, 0xC0, 0x0F, 0xFF, 0xFF, 0xFB, 0x03, 0xFC, 
  0xFD, 0xFF, 0x00, 0xC0, 0x0F, 0x00, 0x3F, 0x00, 0x00, 0x00, 0x00, 0x00, 
  0x00, 0x00, 0x00, 0x00, 0x00, 0x00, 0x00, 0x00, 0x00, 0x00, 0x00, 0x00, 
  0x00, 0x00, 0x00, 0x00, 0x00, 0x00, 0x00, 0x00, 0x00, 0x00, 0x00, 0x00, 
  0x00, 0x00, 0x00, 0x00, 0x00, 0x00, 0x00, 0x00, 0x00, 0x00, 0x00, 0x00, 
  0x00, 0x00, 0x00, 0x00, 0x00, 0x00, 0x00, 0x00, 0x00, 0x00, 0x00, 0x00, 
  0x00, 0x00, 0x00, 0x00, 0x00, 0x00, 0x00, 0x00, 0x00, 0x00, 0x00, 0x00, 
  0x00, 0x00, 0x00, 0x00, 0x00, 0x00, 0x00, 0x00, 0x00, 0x00, 0x00, 0x00, 
  0x00, 0x00, 0x00, 0x00, 0x00, 0x00, 0x00, 0x00, 0x00, 0x00, 0x00, 0x00, 
  0x00, 0x00, 0x00, 0x00, 0x00, 0x00, 0x00, 0x00, 0x00, 0x00, 0x00, 0x00, 
  0x00, 0x00, 0x00, 0x00, 0x00, 0x00, 0x00, 0x00, 0x00, 0x00, 0x00, 0x00, 
  0x00, 0x00, 0x00, 0x00, 0x00, 0x00, 0x00, 0x00, 0x00, 0x00, 0x00, 0x00, 
  0x00, 0x00, 0x00, 0x00, 0x00, 0x00, 0x00, 0x00, 0x00, 0x00, 0x00, 0x00, 
  0x00, 0x00, 0x00, 0x00, 0x00, 0x00, 0x00, 0x00, 0x00, 0x00, 0x00, 0x00, 
  0x00, 0x00, 0x00, 0xE0, 0x0F, 0x00, 0x00, 0x00, 0x00, 0x00, 0x00, 0x00, 
  0x00, 0x00, 0x00, 0x00, 0x00, 0x00, 0x00, 0xFC, 0x7F, 0x00, 0x00, 0x00, 
  0x00, 0x00, 0x00, 0x00, 0x00, 0x00, 0x00, 0x00, 0x00, 0x00, 0x00, 0xFE, 
  0xFF, 0x01, 0x00, 0x00, 0x00, 0x00, 0x00, 0x00, 0x00, 0x00, 0x00, 0x00, 
  0x00, 0x00, 0x00, 0xFF, 0xFF, 0x03, 0x00, 0x00, 0x00, 0x00, 0x00, 0x00, 
  0x00, 0x00, 0x00, 0x00, 0x00, 0x00, 0x80, 0xFF, 0xFF, 0x03, 0x00, 0x00, 
  0x00, 0x00, 0x00, 0x00, 0x00, 0x00, 0x00, 0x00, 0x00, 0x00, 0xC0, 0xFF, 
  0xFF, 0x07, 0x00, 0x00, 0x00, 0x00, 0x00, 0x00, 0x00, 0x00, 0x00, 0x00, 
  0x00, 0x00, 0xC0, 0x3F, 0xFC, 0x07, 0x00, 0x00, 0x00, 0x00, 0x00, 0x00, 
  0x00, 0x00, 0x00, 0x00, 0x00, 0x00, 0xE0, 0x1F, 0xF8, 0x07, 0x00, 0x00, 
  0x00, 0x00, 0x00, 0x00, 0x00, 0x00, 0x00, 0x00, 0x00, 0x00, 0xE0, 0x0F, 
  0xF8, 0x07, 0x00, 0x00, 0x00, 0x00, 0x00, 0x00, 0x00, 0x00, 0x00, 0x00, 
  0x00, 0x00, 0xE0, 0x0F, 0xF8, 0x07, 0x00, 0x00, 0x00, 0x00, 0x00, 0x00, 
  0x00, 0x00, 0x00, 0x00, 0x00, 0x00, 0x00, 0x00, 0xF8, 0x07, 0x00, 0x00, 
  0x00, 0x00, 0x00, 0x00, 0x00, 0x00, 0x00, 0x00, 0x00, 0x00, 0x00, 0x00, 
  0xFC, 0x03, 0x00, 0x00, 0x00, 0x00, 0x00, 0x00, 0x00, 0x00, 0x00, 0x00, 
  0x00, 0x00, 0x00, 0x00, 0xFF, 0x03, 0x00, 0x00, 0x00, 0x00, 0x00, 0x00, 
  0x00, 0x00, 0x00, 0x00, 0x00, 0x00, 0x00, 0xC0, 0xFF, 0x01, 0x00, 0x00, 
  0x00, 0x00, 0x00, 0x00, 0x00, 0x00, 0x00, 0x00, 0x00, 0x00, 0x00, 0xF8, 
  0xFF, 0x00, 0x00, 0x00, 0x00, 0x00, 0x00, 0x00, 0x00, 0x00, 0x00, 0x00, 
  0x00, 0x00, 0x00, 0xFE, 0x3F, 0x00, 0x00, 0x00, 0x00, 0x00, 0x00, 0x00, 
  0x00, 0x00, 0x00, 0x00, 0x00, 0x00, 0x80, 0xFF, 0x1F, 0x00, 0x00, 0x00, 
  0x00, 0x00, 0x00, 0x00, 0x00, 0x00, 0x00, 0x00, 0x00, 0x00, 0xC0, 0xFF, 
  0x03, 0x00, 0x00, 0x00, 0x00, 0x00, 0x00, 0x00, 0x00, 0x00, 0x00, 0x00, 
  0x00, 0x00, 0xE0, 0xFF, 0x00, 0x00, 0x00, 0x00, 0x00, 0x00, 0x00, 0x00, 
  0x00, 0x00, 0x00, 0x00, 0x00, 0x00, 0xF0, 0x3F, 0x00, 0x00, 0x00, 0x00, 
  0x00, 0x00, 0x00, 0x00, 0x00, 0x00, 0x00, 0x00, 0x00, 0x00, 0xF8, 0xFF, 
  0xFF, 0x01, 0x00, 0x00, 0x00, 0x00, 0x00, 0x00, 0x00, 0x00, 0x00, 0x00, 
  0x00, 0x00, 0xFC, 0xFF, 0xFF, 0x01, 0x00, 0x00, 0x00, 0x00, 0x00, 0x00, 
  0x00, 0x00, 0x00, 0x00, 0x00, 0x00, 0xFC, 0xFF, 0xFF, 0x01, 0x00, 0x00, 
  0x00, 0x00, 0x00, 0x00, 0x00, 0x00, 0x00, 0x00, 0x00, 0x00, 0xFE, 0xFF, 
  0xFF, 0x00, 0x00, 0x00, 0x00, 0x00, 0x00, 0x00, 0x00, 0x00, 0x00, 0x00, 
  0x00, 0x00, 0xFE, 0xFF, 0xFF, 0x00, 0x00, 0x00, 0x00, 0x00, 0x00, 0x00, 
  0x00, 0x00, 0x00, 0x00, 0x00, 0x00, 0xFE, 0xFF, 0xFF, 0x00, 0x00, 0x00, 
  0x00, 0x00, 0x00, 0x00, 0x00, 0x00, 0x00, 0x00, 0x00, 0x00, 0x00, 0x00, 
  0x00, 0x00, 0x00, 0x00, 0x00, 0x00, 0x00, 0x00, 0x00, 0x00, 0x00, 0x00, 
  0x00, 0x00, 0x00, 0x00, 0x00, 0x00, 0x00, 0x00, 0x00, 0x00, 0x00, 0x00, 
  0x00, 0x00, 0x00, 0x00, 0x00, 0x00, 0x00, 0x00, 0x00, 0x00, 0x00, 0x00, 
  0x00, 0x00, 0x00, 0x00, 0x00, 0x00, 0x00, 0x00, 0x00, 0x00, 0x00, 0x00, 
  0x00, 0x00, 0x00, 0x00, 0x00, 0x00, 0x00, 0x00, 0x00, 0x00, 0x00, 0x00, 
  0x00, 0x00, 0x00, 0x00, 0x00, 0x00, 0x00, 0x00, 0x00, 0x00, 0x00, 0x00, 
  0x00, 0x00, 0x00, 0x00, 0x00, 0x00, 0x00, 0x00, 0x00, 0x00, 0x00, 0x00, 
  0x00, 0x00, 0x00, 0x00, };
