G04 #@! TF.GenerationSoftware,KiCad,Pcbnew,9.0.2*
G04 #@! TF.CreationDate,2025-08-29T18:44:53+02:00*
G04 #@! TF.ProjectId,sio2flip,73696f32-666c-4697-902e-6b696361645f,rev?*
G04 #@! TF.SameCoordinates,Original*
G04 #@! TF.FileFunction,Copper,L1,Top*
G04 #@! TF.FilePolarity,Positive*
%FSLAX46Y46*%
G04 Gerber Fmt 4.6, Leading zero omitted, Abs format (unit mm)*
G04 Created by KiCad (PCBNEW 9.0.2) date 2025-08-29 18:44:53*
%MOMM*%
%LPD*%
G01*
G04 APERTURE LIST*
G04 Aperture macros list*
%AMRoundRect*
0 Rectangle with rounded corners*
0 $1 Rounding radius*
0 $2 $3 $4 $5 $6 $7 $8 $9 X,Y pos of 4 corners*
0 Add a 4 corners polygon primitive as box body*
4,1,4,$2,$3,$4,$5,$6,$7,$8,$9,$2,$3,0*
0 Add four circle primitives for the rounded corners*
1,1,$1+$1,$2,$3*
1,1,$1+$1,$4,$5*
1,1,$1+$1,$6,$7*
1,1,$1+$1,$8,$9*
0 Add four rect primitives between the rounded corners*
20,1,$1+$1,$2,$3,$4,$5,0*
20,1,$1+$1,$4,$5,$6,$7,0*
20,1,$1+$1,$6,$7,$8,$9,0*
20,1,$1+$1,$8,$9,$2,$3,0*%
G04 Aperture macros list end*
G04 #@! TA.AperFunction,SMDPad,CuDef*
%ADD10RoundRect,0.250000X-0.250000X-0.475000X0.250000X-0.475000X0.250000X0.475000X-0.250000X0.475000X0*%
G04 #@! TD*
G04 #@! TA.AperFunction,SMDPad,CuDef*
%ADD11RoundRect,0.500000X-0.500000X-0.500000X0.500000X-0.500000X0.500000X0.500000X-0.500000X0.500000X0*%
G04 #@! TD*
G04 #@! TA.AperFunction,SMDPad,CuDef*
%ADD12RoundRect,0.250000X0.262500X0.450000X-0.262500X0.450000X-0.262500X-0.450000X0.262500X-0.450000X0*%
G04 #@! TD*
G04 #@! TA.AperFunction,SMDPad,CuDef*
%ADD13RoundRect,0.250000X-0.262500X-0.450000X0.262500X-0.450000X0.262500X0.450000X-0.262500X0.450000X0*%
G04 #@! TD*
G04 #@! TA.AperFunction,SMDPad,CuDef*
%ADD14RoundRect,0.150000X0.512500X0.150000X-0.512500X0.150000X-0.512500X-0.150000X0.512500X-0.150000X0*%
G04 #@! TD*
G04 #@! TA.AperFunction,ComponentPad*
%ADD15R,1.700000X1.700000*%
G04 #@! TD*
G04 #@! TA.AperFunction,ComponentPad*
%ADD16C,1.700000*%
G04 #@! TD*
G04 #@! TA.AperFunction,ViaPad*
%ADD17C,0.600000*%
G04 #@! TD*
G04 #@! TA.AperFunction,Conductor*
%ADD18C,0.300000*%
G04 #@! TD*
G04 APERTURE END LIST*
D10*
X161914800Y-87630000D03*
X163814800Y-87630000D03*
D11*
X148336000Y-94742000D03*
X152146000Y-87122000D03*
X152146000Y-90932000D03*
D12*
X173759500Y-89027000D03*
X171934500Y-89027000D03*
D11*
X148336000Y-90932000D03*
X152146000Y-94742000D03*
D13*
X161925000Y-90043000D03*
X163750000Y-90043000D03*
D14*
X168142500Y-89977000D03*
X168142500Y-89027000D03*
X168142500Y-88077000D03*
X165867500Y-88077000D03*
X165867500Y-89027000D03*
X165867500Y-89977000D03*
D11*
X148336000Y-87122000D03*
D15*
X157124330Y-92978625D03*
D16*
X159664330Y-92978625D03*
X162204330Y-92978625D03*
X164744330Y-92978625D03*
X167284330Y-92978625D03*
X169824330Y-92978625D03*
X172364330Y-92978625D03*
X174904330Y-92978625D03*
X177444330Y-92978625D03*
X179984330Y-92978625D03*
D17*
X145923000Y-94869000D03*
X174752000Y-95377000D03*
X145796000Y-86360000D03*
X179705000Y-89789000D03*
X179959000Y-95377000D03*
X179832000Y-86106000D03*
X157988000Y-90170000D03*
X175006000Y-86106000D03*
X154686000Y-86106000D03*
X170434000Y-86106000D03*
X170434000Y-89027000D03*
X159639000Y-86106000D03*
X145796000Y-90932000D03*
D18*
X173759500Y-91583455D02*
X172364330Y-92978625D01*
X173759500Y-89027000D02*
X173759500Y-91583455D01*
X166954200Y-85979000D02*
X168142500Y-87167300D01*
X168142500Y-87167300D02*
X168142500Y-88077000D01*
X168142500Y-88077000D02*
X168142500Y-87889500D01*
X164211000Y-85979000D02*
X166954200Y-85979000D01*
X163814800Y-87630000D02*
X163814800Y-86375200D01*
X163814800Y-86375200D02*
X164211000Y-85979000D01*
X170434000Y-89027000D02*
X168142500Y-89027000D01*
X152146000Y-90932000D02*
X160147000Y-90932000D01*
X160147000Y-90932000D02*
X162193625Y-92978625D01*
X171934500Y-89027000D02*
X170434000Y-89027000D01*
X165205001Y-89027000D02*
X165867500Y-89027000D01*
X152433000Y-86835000D02*
X152146000Y-87122000D01*
X161914800Y-87630000D02*
X163090800Y-88806000D01*
X153451000Y-88427000D02*
X161356600Y-88427000D01*
X164984001Y-88806000D02*
X165205001Y-89027000D01*
X152146000Y-87122000D02*
X153451000Y-88427000D01*
X163090800Y-88806000D02*
X164984001Y-88806000D01*
X161914800Y-87868800D02*
X161914800Y-87630000D01*
X161356600Y-88427000D02*
X161914800Y-87868800D01*
X163750000Y-90043000D02*
X165801500Y-90043000D01*
X165801500Y-90043000D02*
X165867500Y-89977000D01*
X172378955Y-95504000D02*
X174904330Y-92978625D01*
X153649662Y-94742000D02*
X154411662Y-95504000D01*
X152146000Y-94742000D02*
X153649662Y-94742000D01*
X154411662Y-95504000D02*
X172378955Y-95504000D01*
X167833000Y-89977000D02*
X167284330Y-90525670D01*
X167284330Y-90525670D02*
X167284330Y-92978625D01*
X168142500Y-89977000D02*
X167833000Y-89977000D01*
X170438955Y-94904000D02*
X155102000Y-94904000D01*
X149787000Y-93291000D02*
X148336000Y-94742000D01*
X153489000Y-93291000D02*
X149787000Y-93291000D01*
X155102000Y-94904000D02*
X153489000Y-93291000D01*
X172364330Y-92978625D02*
X170438955Y-94904000D01*
X169824330Y-92978625D02*
X168498955Y-94304000D01*
X168498955Y-94304000D02*
X155616644Y-94304000D01*
X154003644Y-92691000D02*
X150095000Y-92691000D01*
X150095000Y-92691000D02*
X148336000Y-90932000D01*
X155616644Y-94304000D02*
X154003644Y-92691000D01*
X161925000Y-90043000D02*
X161925000Y-89839800D01*
X151256800Y-89042800D02*
X149336000Y-87122000D01*
X161128000Y-89042800D02*
X151256800Y-89042800D01*
X161925000Y-89839800D02*
X161128000Y-89042800D01*
X149336000Y-87122000D02*
X148336000Y-87122000D01*
G04 #@! TA.AperFunction,Conductor*
G36*
X182025000Y-85436053D02*
G01*
X182079538Y-85490591D01*
X182099500Y-85565091D01*
X182099500Y-96459842D01*
X182079538Y-96534342D01*
X182025000Y-96588880D01*
X181950500Y-96608842D01*
X145253749Y-96608842D01*
X145179249Y-96588880D01*
X145124711Y-96534342D01*
X145104755Y-96461149D01*
X145104744Y-96459842D01*
X145017798Y-86548046D01*
X146985500Y-86548046D01*
X146985500Y-87695954D01*
X146986585Y-87711966D01*
X146988316Y-87737493D01*
X147032963Y-87917021D01*
X147115156Y-88082751D01*
X147115158Y-88082753D01*
X147231060Y-88226940D01*
X147351601Y-88323835D01*
X147375248Y-88342843D01*
X147458113Y-88383939D01*
X147540979Y-88425037D01*
X147720505Y-88469683D01*
X147762046Y-88472500D01*
X147762054Y-88472500D01*
X148909946Y-88472500D01*
X148909954Y-88472500D01*
X148951495Y-88469683D01*
X149131021Y-88425037D01*
X149296753Y-88342842D01*
X149440940Y-88226940D01*
X149467093Y-88194404D01*
X149529325Y-88148846D01*
X149606001Y-88140507D01*
X149676574Y-88171623D01*
X149688583Y-88182397D01*
X150856300Y-89350114D01*
X150856299Y-89350114D01*
X150925517Y-89419331D01*
X150949486Y-89443300D01*
X150949487Y-89443301D01*
X150949489Y-89443302D01*
X150953641Y-89445699D01*
X150957034Y-89449092D01*
X150957240Y-89449250D01*
X150957219Y-89449277D01*
X151008180Y-89500236D01*
X151028143Y-89574736D01*
X151008182Y-89649236D01*
X150973305Y-89690213D01*
X150935249Y-89721244D01*
X150935247Y-89721246D01*
X150806721Y-89878870D01*
X150712558Y-90059135D01*
X150656610Y-90254666D01*
X150646000Y-90374001D01*
X150646000Y-90682000D01*
X153646000Y-90682000D01*
X153646000Y-90374001D01*
X153635389Y-90254666D01*
X153579441Y-90059135D01*
X153485278Y-89878870D01*
X153409927Y-89786460D01*
X153378318Y-89716106D01*
X153386121Y-89639374D01*
X153431244Y-89576823D01*
X153501598Y-89545214D01*
X153525404Y-89543300D01*
X160858968Y-89543300D01*
X160877916Y-89548377D01*
X160897531Y-89548377D01*
X160914518Y-89558184D01*
X160933468Y-89563262D01*
X160964326Y-89586940D01*
X161018358Y-89640971D01*
X161056923Y-89707766D01*
X161062000Y-89746331D01*
X161062000Y-90532356D01*
X161069213Y-90587144D01*
X161077456Y-90649762D01*
X161093850Y-90689341D01*
X161137963Y-90795840D01*
X161137964Y-90795841D01*
X161234218Y-90921282D01*
X161359659Y-91017536D01*
X161505738Y-91078044D01*
X161505741Y-91078044D01*
X161505743Y-91078045D01*
X161505740Y-91078045D01*
X161570197Y-91086530D01*
X161623139Y-91093500D01*
X162226860Y-91093499D01*
X162344262Y-91078044D01*
X162490341Y-91017536D01*
X162615782Y-90921282D01*
X162712036Y-90795841D01*
X162712036Y-90795840D01*
X162717981Y-90788093D01*
X162720483Y-90790013D01*
X162762982Y-90747503D01*
X162837479Y-90727530D01*
X162911982Y-90747482D01*
X162954521Y-90790009D01*
X162957019Y-90788093D01*
X162962963Y-90795840D01*
X162962964Y-90795841D01*
X163059218Y-90921282D01*
X163184659Y-91017536D01*
X163330738Y-91078044D01*
X163330741Y-91078044D01*
X163330743Y-91078045D01*
X163330740Y-91078045D01*
X163395197Y-91086530D01*
X163448139Y-91093500D01*
X164051860Y-91093499D01*
X164169262Y-91078044D01*
X164315341Y-91017536D01*
X164440782Y-90921282D01*
X164537036Y-90795841D01*
X164597544Y-90649762D01*
X164597544Y-90649760D01*
X164601281Y-90640739D01*
X164603511Y-90641662D01*
X164606232Y-90636950D01*
X164611310Y-90618000D01*
X164625179Y-90604130D01*
X164634986Y-90587144D01*
X164651975Y-90577334D01*
X164665848Y-90563462D01*
X164684794Y-90558385D01*
X164701780Y-90548578D01*
X164740348Y-90543500D01*
X165026614Y-90543500D01*
X165101114Y-90563462D01*
X165110136Y-90569413D01*
X165112666Y-90570793D01*
X165112669Y-90570796D01*
X165218486Y-90610263D01*
X165247517Y-90621091D01*
X165307114Y-90627499D01*
X165307118Y-90627499D01*
X165307127Y-90627500D01*
X166427872Y-90627499D01*
X166487483Y-90621091D01*
X166582763Y-90585553D01*
X166659539Y-90578223D01*
X166729697Y-90610263D01*
X166774436Y-90673090D01*
X166783830Y-90725160D01*
X166783830Y-91794981D01*
X166763868Y-91869481D01*
X166709330Y-91924019D01*
X166702477Y-91927740D01*
X166655130Y-91951865D01*
X166655129Y-91951866D01*
X166502266Y-92062928D01*
X166502255Y-92062937D01*
X166368642Y-92196550D01*
X166368633Y-92196561D01*
X166257571Y-92349424D01*
X166257568Y-92349429D01*
X166171788Y-92517782D01*
X166171785Y-92517788D01*
X166171783Y-92517793D01*
X166158026Y-92560134D01*
X166156037Y-92566254D01*
X166114030Y-92630939D01*
X166045308Y-92665954D01*
X165968286Y-92661917D01*
X165903601Y-92619910D01*
X165872623Y-92566254D01*
X165856877Y-92517793D01*
X165771090Y-92349426D01*
X165660020Y-92196552D01*
X165526403Y-92062935D01*
X165373529Y-91951865D01*
X165253623Y-91890770D01*
X165205172Y-91866083D01*
X165205171Y-91866082D01*
X165205162Y-91866078D01*
X165025448Y-91807685D01*
X164838811Y-91778125D01*
X164649849Y-91778125D01*
X164463212Y-91807685D01*
X164291882Y-91863354D01*
X164283498Y-91866078D01*
X164283493Y-91866080D01*
X164283487Y-91866083D01*
X164115134Y-91951863D01*
X164115129Y-91951866D01*
X163962266Y-92062928D01*
X163962255Y-92062937D01*
X163828642Y-92196550D01*
X163828633Y-92196561D01*
X163717571Y-92349424D01*
X163717570Y-92349425D01*
X163690982Y-92401606D01*
X163639372Y-92458922D01*
X163566018Y-92482755D01*
X163490576Y-92466718D01*
X163433260Y-92415108D01*
X163425463Y-92401604D01*
X163358951Y-92271069D01*
X163319600Y-92216907D01*
X162687292Y-92849214D01*
X162670255Y-92785632D01*
X162604429Y-92671618D01*
X162511337Y-92578526D01*
X162397323Y-92512700D01*
X162333737Y-92495662D01*
X162966046Y-91863354D01*
X162966046Y-91863353D01*
X162911885Y-91824003D01*
X162911885Y-91824002D01*
X162722550Y-91727531D01*
X162520458Y-91661867D01*
X162310572Y-91628625D01*
X162098088Y-91628625D01*
X161888201Y-91661867D01*
X161686109Y-91727531D01*
X161496774Y-91824003D01*
X161442612Y-91863353D01*
X161442612Y-91863354D01*
X162074920Y-92495662D01*
X162011337Y-92512700D01*
X161897323Y-92578526D01*
X161804231Y-92671618D01*
X161738405Y-92785632D01*
X161721367Y-92849215D01*
X161089059Y-92216907D01*
X161089058Y-92216907D01*
X161049706Y-92271071D01*
X160983195Y-92401605D01*
X160931586Y-92458922D01*
X160858233Y-92482755D01*
X160782790Y-92466718D01*
X160725473Y-92415109D01*
X160717676Y-92401604D01*
X160716019Y-92398352D01*
X160691090Y-92349426D01*
X160580020Y-92196552D01*
X160446403Y-92062935D01*
X160397260Y-92027230D01*
X160293531Y-91951866D01*
X160293525Y-91951863D01*
X160125172Y-91866083D01*
X160125171Y-91866082D01*
X160125162Y-91866078D01*
X159945448Y-91807685D01*
X159758811Y-91778125D01*
X159569849Y-91778125D01*
X159383212Y-91807685D01*
X159211882Y-91863354D01*
X159203498Y-91866078D01*
X159203493Y-91866080D01*
X159203487Y-91866083D01*
X159035134Y-91951863D01*
X159035129Y-91951866D01*
X158882266Y-92062928D01*
X158882255Y-92062937D01*
X158748642Y-92196550D01*
X158748633Y-92196561D01*
X158637571Y-92349424D01*
X158606590Y-92410228D01*
X158554981Y-92467545D01*
X158481628Y-92491379D01*
X158406185Y-92475343D01*
X158348868Y-92423734D01*
X158325034Y-92350381D01*
X158324830Y-92342583D01*
X158324830Y-92095366D01*
X158324829Y-92095356D01*
X158314903Y-92027231D01*
X158314903Y-92027230D01*
X158263529Y-91922143D01*
X158180811Y-91839425D01*
X158075724Y-91788051D01*
X158007598Y-91778125D01*
X158007590Y-91778125D01*
X156241070Y-91778125D01*
X156241061Y-91778125D01*
X156172936Y-91788051D01*
X156172935Y-91788051D01*
X156067848Y-91839425D01*
X155985130Y-91922143D01*
X155933756Y-92027230D01*
X155933756Y-92027231D01*
X155923830Y-92095356D01*
X155923830Y-93543654D01*
X155903868Y-93618154D01*
X155849330Y-93672692D01*
X155774830Y-93692654D01*
X155700330Y-93672692D01*
X155669471Y-93649013D01*
X154999082Y-92978624D01*
X154310958Y-92290500D01*
X154310955Y-92290498D01*
X154310954Y-92290497D01*
X154240158Y-92249623D01*
X154196830Y-92224608D01*
X154069536Y-92190500D01*
X153623936Y-92190500D01*
X153549436Y-92170538D01*
X153494898Y-92116000D01*
X153474936Y-92041500D01*
X153491868Y-91972513D01*
X153579441Y-91804861D01*
X153635389Y-91609333D01*
X153646000Y-91489998D01*
X153646000Y-91182000D01*
X150646000Y-91182000D01*
X150646000Y-91489998D01*
X150656610Y-91609333D01*
X150712558Y-91804861D01*
X150800132Y-91972513D01*
X150816931Y-92047790D01*
X150793842Y-92121381D01*
X150737051Y-92173568D01*
X150668064Y-92190500D01*
X150364032Y-92190500D01*
X150289532Y-92170538D01*
X150258673Y-92146859D01*
X149729993Y-91618179D01*
X149691429Y-91551384D01*
X149686521Y-91508476D01*
X149686500Y-91508476D01*
X149686500Y-91508289D01*
X149686438Y-91507747D01*
X149686498Y-91505981D01*
X149686500Y-91505954D01*
X149686500Y-90358046D01*
X149683683Y-90316505D01*
X149639037Y-90136979D01*
X149571864Y-90001536D01*
X149556843Y-89971248D01*
X149503816Y-89905281D01*
X149440940Y-89827060D01*
X149309303Y-89721246D01*
X149296751Y-89711156D01*
X149131021Y-89628963D01*
X148951493Y-89584316D01*
X148925966Y-89582585D01*
X148909954Y-89581500D01*
X147762046Y-89581500D01*
X147746769Y-89582535D01*
X147720506Y-89584316D01*
X147540978Y-89628963D01*
X147375248Y-89711156D01*
X147231060Y-89827060D01*
X147115156Y-89971248D01*
X147032963Y-90136978D01*
X146988316Y-90316506D01*
X146986450Y-90344034D01*
X146985500Y-90358046D01*
X146985500Y-91505954D01*
X146985671Y-91508476D01*
X146988316Y-91547493D01*
X147032963Y-91727021D01*
X147115156Y-91892751D01*
X147143282Y-91927740D01*
X147231060Y-92036940D01*
X147329414Y-92116000D01*
X147375248Y-92152843D01*
X147417037Y-92173568D01*
X147540979Y-92235037D01*
X147720505Y-92279683D01*
X147762046Y-92282500D01*
X147762054Y-92282500D01*
X148909927Y-92282500D01*
X148909954Y-92282500D01*
X148909981Y-92282498D01*
X148911747Y-92282438D01*
X148912015Y-92282500D01*
X148912476Y-92282500D01*
X148912476Y-92282606D01*
X148986883Y-92299852D01*
X149022179Y-92325993D01*
X149427827Y-92731641D01*
X149466391Y-92798436D01*
X149466391Y-92875564D01*
X149427827Y-92942359D01*
X149022178Y-93348006D01*
X148955383Y-93386570D01*
X148912476Y-93391482D01*
X148912476Y-93391500D01*
X148912321Y-93391500D01*
X148911779Y-93391562D01*
X148909960Y-93391500D01*
X148909954Y-93391500D01*
X147762046Y-93391500D01*
X147746769Y-93392535D01*
X147720506Y-93394316D01*
X147540978Y-93438963D01*
X147375248Y-93521156D01*
X147231060Y-93637060D01*
X147115156Y-93781248D01*
X147032963Y-93946978D01*
X146988316Y-94126506D01*
X146986753Y-94149564D01*
X146985500Y-94168046D01*
X146985500Y-95315954D01*
X146986585Y-95331966D01*
X146988316Y-95357493D01*
X147032963Y-95537021D01*
X147115156Y-95702751D01*
X147115158Y-95702753D01*
X147231060Y-95846940D01*
X147302670Y-95904502D01*
X147375248Y-95962843D01*
X147458113Y-96003939D01*
X147540979Y-96045037D01*
X147720505Y-96089683D01*
X147762046Y-96092500D01*
X147762054Y-96092500D01*
X148909946Y-96092500D01*
X148909954Y-96092500D01*
X148951495Y-96089683D01*
X149131021Y-96045037D01*
X149296753Y-95962842D01*
X149440940Y-95846940D01*
X149556842Y-95702753D01*
X149639037Y-95537021D01*
X149683683Y-95357495D01*
X149686500Y-95315954D01*
X149686500Y-94168046D01*
X149686498Y-94168022D01*
X149686438Y-94166249D01*
X149686500Y-94165981D01*
X149686500Y-94165524D01*
X149686606Y-94165524D01*
X149703853Y-94091113D01*
X149729994Y-94055819D01*
X149950674Y-93835141D01*
X150017469Y-93796577D01*
X150056032Y-93791500D01*
X150691036Y-93791500D01*
X150765536Y-93811462D01*
X150820074Y-93866000D01*
X150840036Y-93940500D01*
X150835632Y-93976459D01*
X150798316Y-94126506D01*
X150796753Y-94149564D01*
X150795500Y-94168046D01*
X150795500Y-95315954D01*
X150796585Y-95331966D01*
X150798316Y-95357493D01*
X150842963Y-95537021D01*
X150925156Y-95702751D01*
X150925158Y-95702753D01*
X151041060Y-95846940D01*
X151112670Y-95904502D01*
X151185248Y-95962843D01*
X151268113Y-96003939D01*
X151350979Y-96045037D01*
X151530505Y-96089683D01*
X151572046Y-96092500D01*
X151572054Y-96092500D01*
X152719946Y-96092500D01*
X152719954Y-96092500D01*
X152761495Y-96089683D01*
X152941021Y-96045037D01*
X153106753Y-95962842D01*
X153250940Y-95846940D01*
X153366842Y-95702753D01*
X153366842Y-95702751D01*
X153366844Y-95702750D01*
X153452296Y-95530450D01*
X153503280Y-95472576D01*
X153576370Y-95447948D01*
X153651982Y-95463166D01*
X153691140Y-95491292D01*
X154011162Y-95811314D01*
X154011161Y-95811314D01*
X154104345Y-95904497D01*
X154104348Y-95904500D01*
X154218476Y-95970392D01*
X154345770Y-96004500D01*
X172444847Y-96004500D01*
X172572141Y-95970392D01*
X172686269Y-95904500D01*
X174421276Y-94169491D01*
X174488069Y-94130929D01*
X174565197Y-94130929D01*
X174572677Y-94133145D01*
X174623212Y-94149565D01*
X174809849Y-94179125D01*
X174809854Y-94179125D01*
X174998806Y-94179125D01*
X174998811Y-94179125D01*
X175185448Y-94149565D01*
X175365162Y-94091172D01*
X175533529Y-94005385D01*
X175686403Y-93894315D01*
X175820020Y-93760698D01*
X175931090Y-93607824D01*
X176016877Y-93439457D01*
X176032623Y-93390995D01*
X176074629Y-93326311D01*
X176143351Y-93291295D01*
X176220373Y-93295332D01*
X176285058Y-93337338D01*
X176316037Y-93390996D01*
X176331779Y-93439447D01*
X176331781Y-93439453D01*
X176331783Y-93439457D01*
X176417570Y-93607824D01*
X176528640Y-93760698D01*
X176662257Y-93894315D01*
X176815131Y-94005385D01*
X176983498Y-94091172D01*
X177163212Y-94149565D01*
X177349849Y-94179125D01*
X177349854Y-94179125D01*
X177538806Y-94179125D01*
X177538811Y-94179125D01*
X177725448Y-94149565D01*
X177905162Y-94091172D01*
X178073529Y-94005385D01*
X178226403Y-93894315D01*
X178360020Y-93760698D01*
X178471090Y-93607824D01*
X178497676Y-93555646D01*
X178549284Y-93498328D01*
X178622638Y-93474494D01*
X178698080Y-93490530D01*
X178755398Y-93542138D01*
X178763196Y-93555645D01*
X178829708Y-93686180D01*
X178869058Y-93740341D01*
X178869059Y-93740341D01*
X179501367Y-93108033D01*
X179518405Y-93171618D01*
X179584231Y-93285632D01*
X179677323Y-93378724D01*
X179791337Y-93444550D01*
X179854920Y-93461587D01*
X179222612Y-94093895D01*
X179276774Y-94133246D01*
X179276774Y-94133247D01*
X179466109Y-94229718D01*
X179668201Y-94295382D01*
X179878088Y-94328625D01*
X180090572Y-94328625D01*
X180300458Y-94295382D01*
X180502550Y-94229718D01*
X180691885Y-94133247D01*
X180691887Y-94133245D01*
X180746046Y-94093895D01*
X180746046Y-94093894D01*
X180113739Y-93461587D01*
X180177323Y-93444550D01*
X180291337Y-93378724D01*
X180384429Y-93285632D01*
X180450255Y-93171618D01*
X180467292Y-93108034D01*
X181099599Y-93740341D01*
X181099600Y-93740341D01*
X181138950Y-93686182D01*
X181138952Y-93686180D01*
X181235423Y-93496845D01*
X181301087Y-93294753D01*
X181334330Y-93084867D01*
X181334330Y-92872382D01*
X181301087Y-92662496D01*
X181235423Y-92460404D01*
X181138951Y-92271069D01*
X181099600Y-92216907D01*
X180467292Y-92849214D01*
X180450255Y-92785632D01*
X180384429Y-92671618D01*
X180291337Y-92578526D01*
X180177323Y-92512700D01*
X180113737Y-92495662D01*
X180746046Y-91863354D01*
X180746046Y-91863353D01*
X180691885Y-91824003D01*
X180691885Y-91824002D01*
X180502550Y-91727531D01*
X180300458Y-91661867D01*
X180090572Y-91628625D01*
X179878088Y-91628625D01*
X179668201Y-91661867D01*
X179466109Y-91727531D01*
X179276774Y-91824003D01*
X179222612Y-91863353D01*
X179222612Y-91863354D01*
X179854920Y-92495662D01*
X179791337Y-92512700D01*
X179677323Y-92578526D01*
X179584231Y-92671618D01*
X179518405Y-92785632D01*
X179501367Y-92849215D01*
X178869059Y-92216907D01*
X178869058Y-92216907D01*
X178829706Y-92271071D01*
X178763195Y-92401605D01*
X178711586Y-92458922D01*
X178638233Y-92482755D01*
X178562790Y-92466718D01*
X178505473Y-92415109D01*
X178497676Y-92401604D01*
X178496019Y-92398352D01*
X178471090Y-92349426D01*
X178360020Y-92196552D01*
X178226403Y-92062935D01*
X178177260Y-92027230D01*
X178073531Y-91951866D01*
X178073525Y-91951863D01*
X177905172Y-91866083D01*
X177905171Y-91866082D01*
X177905162Y-91866078D01*
X177725448Y-91807685D01*
X177538811Y-91778125D01*
X177349849Y-91778125D01*
X177163212Y-91807685D01*
X176991882Y-91863354D01*
X176983498Y-91866078D01*
X176983493Y-91866080D01*
X176983487Y-91866083D01*
X176815134Y-91951863D01*
X176815129Y-91951866D01*
X176662266Y-92062928D01*
X176662255Y-92062937D01*
X176528642Y-92196550D01*
X176528633Y-92196561D01*
X176417571Y-92349424D01*
X176417568Y-92349429D01*
X176331788Y-92517782D01*
X176331785Y-92517788D01*
X176331783Y-92517793D01*
X176318026Y-92560134D01*
X176316037Y-92566254D01*
X176274030Y-92630939D01*
X176205308Y-92665954D01*
X176128286Y-92661917D01*
X176063601Y-92619910D01*
X176032623Y-92566254D01*
X176016877Y-92517793D01*
X175931090Y-92349426D01*
X175820020Y-92196552D01*
X175686403Y-92062935D01*
X175533529Y-91951865D01*
X175413623Y-91890770D01*
X175365172Y-91866083D01*
X175365171Y-91866082D01*
X175365162Y-91866078D01*
X175185448Y-91807685D01*
X174998811Y-91778125D01*
X174809849Y-91778125D01*
X174654318Y-91802758D01*
X174623211Y-91807685D01*
X174623209Y-91807685D01*
X174439882Y-91867252D01*
X174362860Y-91871289D01*
X174294138Y-91836273D01*
X174252132Y-91771588D01*
X174248095Y-91694566D01*
X174249917Y-91686979D01*
X174259999Y-91649353D01*
X174260000Y-91649347D01*
X174260000Y-90124768D01*
X174279962Y-90050268D01*
X174318295Y-90006558D01*
X174324838Y-90001537D01*
X174324841Y-90001536D01*
X174450282Y-89905282D01*
X174546536Y-89779841D01*
X174607044Y-89633762D01*
X174607580Y-89629696D01*
X174622499Y-89516366D01*
X174622500Y-89516361D01*
X174622499Y-88537640D01*
X174607044Y-88420238D01*
X174546536Y-88274159D01*
X174450282Y-88148718D01*
X174336353Y-88061297D01*
X174324840Y-88052463D01*
X174204217Y-88002500D01*
X174178762Y-87991956D01*
X174178760Y-87991955D01*
X174178756Y-87991954D01*
X174178759Y-87991954D01*
X174061363Y-87976500D01*
X173457643Y-87976500D01*
X173340238Y-87991956D01*
X173194159Y-88052463D01*
X173068718Y-88148717D01*
X173068717Y-88148718D01*
X173059087Y-88161268D01*
X172997895Y-88208218D01*
X172921426Y-88218281D01*
X172850170Y-88188763D01*
X172814063Y-88148777D01*
X172789318Y-88108658D01*
X172665340Y-87984680D01*
X172516121Y-87892642D01*
X172349697Y-87837494D01*
X172349688Y-87837492D01*
X172246989Y-87827000D01*
X172184500Y-87827000D01*
X172184500Y-90226999D01*
X172246974Y-90226999D01*
X172349696Y-90216505D01*
X172516121Y-90161357D01*
X172665340Y-90069319D01*
X172789319Y-89945340D01*
X172789322Y-89945336D01*
X172814063Y-89905224D01*
X172870162Y-89852294D01*
X172945211Y-89834505D01*
X173019099Y-89856624D01*
X173036425Y-89869108D01*
X173049067Y-89879672D01*
X173068718Y-89905282D01*
X173194159Y-90001536D01*
X173195620Y-90002141D01*
X173205544Y-90010434D01*
X173225998Y-90039520D01*
X173247658Y-90067747D01*
X173248371Y-90071335D01*
X173249911Y-90073524D01*
X173250814Y-90083615D01*
X173259000Y-90124768D01*
X173259000Y-91314422D01*
X173239038Y-91388922D01*
X173215359Y-91419781D01*
X172847383Y-91787756D01*
X172780588Y-91826320D01*
X172703460Y-91826320D01*
X172695980Y-91824104D01*
X172695666Y-91824002D01*
X172645448Y-91807685D01*
X172458811Y-91778125D01*
X172269849Y-91778125D01*
X172083212Y-91807685D01*
X171911882Y-91863354D01*
X171903498Y-91866078D01*
X171903493Y-91866080D01*
X171903487Y-91866083D01*
X171735134Y-91951863D01*
X171735129Y-91951866D01*
X171582266Y-92062928D01*
X171582255Y-92062937D01*
X171448642Y-92196550D01*
X171448633Y-92196561D01*
X171337571Y-92349424D01*
X171337568Y-92349429D01*
X171251788Y-92517782D01*
X171251785Y-92517788D01*
X171251783Y-92517793D01*
X171238026Y-92560134D01*
X171236037Y-92566254D01*
X171194030Y-92630939D01*
X171125308Y-92665954D01*
X171048286Y-92661917D01*
X170983601Y-92619910D01*
X170952623Y-92566254D01*
X170936877Y-92517793D01*
X170851090Y-92349426D01*
X170740020Y-92196552D01*
X170606403Y-92062935D01*
X170453529Y-91951865D01*
X170333623Y-91890770D01*
X170285172Y-91866083D01*
X170285171Y-91866082D01*
X170285162Y-91866078D01*
X170105448Y-91807685D01*
X169918811Y-91778125D01*
X169729849Y-91778125D01*
X169543212Y-91807685D01*
X169371882Y-91863354D01*
X169363498Y-91866078D01*
X169363493Y-91866080D01*
X169363487Y-91866083D01*
X169195134Y-91951863D01*
X169195129Y-91951866D01*
X169042266Y-92062928D01*
X169042255Y-92062937D01*
X168908642Y-92196550D01*
X168908633Y-92196561D01*
X168797571Y-92349424D01*
X168797568Y-92349429D01*
X168711788Y-92517782D01*
X168711785Y-92517788D01*
X168711783Y-92517793D01*
X168698026Y-92560134D01*
X168696037Y-92566254D01*
X168654030Y-92630939D01*
X168585308Y-92665954D01*
X168508286Y-92661917D01*
X168443601Y-92619910D01*
X168412623Y-92566254D01*
X168396877Y-92517793D01*
X168311090Y-92349426D01*
X168200020Y-92196552D01*
X168066403Y-92062935D01*
X167913529Y-91951865D01*
X167913525Y-91951863D01*
X167866183Y-91927740D01*
X167808866Y-91876130D01*
X167785034Y-91802776D01*
X167784830Y-91794981D01*
X167784830Y-90794700D01*
X167789907Y-90775752D01*
X167789907Y-90756136D01*
X167799714Y-90739148D01*
X167804792Y-90720200D01*
X167828465Y-90689347D01*
X167846675Y-90671138D01*
X167913467Y-90632576D01*
X167952031Y-90627499D01*
X168702864Y-90627499D01*
X168702872Y-90627499D01*
X168762483Y-90621091D01*
X168879802Y-90577334D01*
X168897329Y-90570797D01*
X168897333Y-90570795D01*
X168954938Y-90527671D01*
X169012546Y-90484546D01*
X169098796Y-90369331D01*
X169103003Y-90358053D01*
X169149091Y-90234482D01*
X169155499Y-90174885D01*
X169155499Y-90174882D01*
X169155500Y-90174873D01*
X169155499Y-89779128D01*
X169149091Y-89719517D01*
X169149088Y-89719510D01*
X169146947Y-89710445D01*
X169149048Y-89709948D01*
X169142929Y-89645881D01*
X169168701Y-89587093D01*
X169167910Y-89586625D01*
X169171764Y-89580108D01*
X169172135Y-89579262D01*
X169172679Y-89578559D01*
X169203187Y-89526973D01*
X170922001Y-89526973D01*
X170932494Y-89629696D01*
X170987642Y-89796121D01*
X171079680Y-89945340D01*
X171203659Y-90069319D01*
X171352878Y-90161357D01*
X171519302Y-90216505D01*
X171519311Y-90216507D01*
X171622016Y-90226999D01*
X171684500Y-90226998D01*
X171684500Y-89277000D01*
X170922001Y-89277000D01*
X170922001Y-89526973D01*
X169203187Y-89526973D01*
X169256281Y-89437197D01*
X169256281Y-89437196D01*
X169302100Y-89279488D01*
X169302296Y-89277000D01*
X168291500Y-89277000D01*
X168217000Y-89257038D01*
X168162462Y-89202500D01*
X168142500Y-89128000D01*
X168142500Y-88926000D01*
X168162462Y-88851500D01*
X168217000Y-88796962D01*
X168291500Y-88777000D01*
X169302296Y-88777000D01*
X169302296Y-88776999D01*
X169302100Y-88774511D01*
X169256280Y-88616799D01*
X169253847Y-88611176D01*
X169251309Y-88593994D01*
X169243927Y-88578275D01*
X169246154Y-88559086D01*
X169242579Y-88534875D01*
X169244427Y-88527010D01*
X170922000Y-88527010D01*
X170922000Y-88777000D01*
X171684500Y-88777000D01*
X171684500Y-87827000D01*
X171684499Y-87826999D01*
X171622026Y-87827000D01*
X171519303Y-87837494D01*
X171352878Y-87892642D01*
X171203659Y-87984680D01*
X171079680Y-88108659D01*
X170987642Y-88257878D01*
X170932494Y-88424302D01*
X170932492Y-88424311D01*
X170922000Y-88527010D01*
X169244427Y-88527010D01*
X169250439Y-88501423D01*
X169259210Y-88477117D01*
X169302100Y-88329488D01*
X169302296Y-88327000D01*
X168291500Y-88327000D01*
X168217000Y-88307038D01*
X168162462Y-88252500D01*
X168142500Y-88178000D01*
X168142500Y-88077000D01*
X168041500Y-88077000D01*
X167967000Y-88057038D01*
X167912462Y-88002500D01*
X167892500Y-87928000D01*
X167892500Y-87827000D01*
X168392500Y-87827000D01*
X169302296Y-87827000D01*
X169302296Y-87826999D01*
X169302100Y-87824511D01*
X169256281Y-87666803D01*
X169256281Y-87666802D01*
X169172683Y-87525445D01*
X169172681Y-87525442D01*
X169056557Y-87409318D01*
X169056554Y-87409316D01*
X168915197Y-87325718D01*
X168757493Y-87279900D01*
X168757494Y-87279900D01*
X168720634Y-87277000D01*
X168392500Y-87277000D01*
X168392500Y-87827000D01*
X167892500Y-87827000D01*
X167892500Y-87277000D01*
X167564365Y-87277000D01*
X167527506Y-87279900D01*
X167369803Y-87325718D01*
X167369802Y-87325718D01*
X167228445Y-87409316D01*
X167228442Y-87409318D01*
X167112318Y-87525442D01*
X167112316Y-87525445D01*
X167046063Y-87637474D01*
X166990957Y-87691438D01*
X166916252Y-87710619D01*
X166841965Y-87689878D01*
X166798532Y-87650920D01*
X166737547Y-87569455D01*
X166737544Y-87569452D01*
X166622333Y-87483204D01*
X166622329Y-87483202D01*
X166487482Y-87432908D01*
X166427876Y-87426500D01*
X165307136Y-87426500D01*
X165307111Y-87426502D01*
X165247521Y-87432908D01*
X165247515Y-87432909D01*
X165112670Y-87483202D01*
X165112667Y-87483204D01*
X165053091Y-87527803D01*
X164981488Y-87556468D01*
X164905145Y-87545492D01*
X164844518Y-87497814D01*
X164815853Y-87426211D01*
X164814799Y-87408522D01*
X164814799Y-87105026D01*
X164804305Y-87002303D01*
X164749157Y-86835878D01*
X164657119Y-86686659D01*
X164533140Y-86562680D01*
X164383921Y-86470642D01*
X164217497Y-86415494D01*
X164217488Y-86415492D01*
X164114789Y-86405000D01*
X164064800Y-86405000D01*
X164064800Y-87481000D01*
X164044838Y-87555500D01*
X163990300Y-87610038D01*
X163915800Y-87630000D01*
X163713800Y-87630000D01*
X163639300Y-87610038D01*
X163584762Y-87555500D01*
X163564800Y-87481000D01*
X163564800Y-86405000D01*
X163514825Y-86405000D01*
X163412103Y-86415494D01*
X163245678Y-86470642D01*
X163096459Y-86562680D01*
X162972480Y-86686659D01*
X162972475Y-86686665D01*
X162903171Y-86799026D01*
X162847071Y-86851955D01*
X162772022Y-86869742D01*
X162698134Y-86847621D01*
X162658145Y-86811510D01*
X162593082Y-86726718D01*
X162593081Y-86726717D01*
X162467640Y-86630463D01*
X162387744Y-86597369D01*
X162321562Y-86569956D01*
X162321560Y-86569955D01*
X162321556Y-86569954D01*
X162321559Y-86569954D01*
X162204163Y-86554500D01*
X161625443Y-86554500D01*
X161508038Y-86569956D01*
X161361959Y-86630463D01*
X161236518Y-86726717D01*
X161236517Y-86726718D01*
X161140263Y-86852159D01*
X161079754Y-86998242D01*
X161064300Y-87115633D01*
X161064300Y-87115638D01*
X161064300Y-87115639D01*
X161064300Y-87513968D01*
X161064301Y-87777500D01*
X161044339Y-87852000D01*
X160989801Y-87906538D01*
X160915301Y-87926500D01*
X153720032Y-87926500D01*
X153701084Y-87921423D01*
X153681468Y-87921423D01*
X153664480Y-87911615D01*
X153645532Y-87906538D01*
X153614673Y-87882859D01*
X153539993Y-87808179D01*
X153501429Y-87741384D01*
X153496521Y-87698476D01*
X153496500Y-87698476D01*
X153496500Y-87698289D01*
X153496438Y-87697747D01*
X153496498Y-87695981D01*
X153496500Y-87695954D01*
X153496500Y-86548046D01*
X153493683Y-86506505D01*
X153449037Y-86326979D01*
X153407939Y-86244113D01*
X153366843Y-86161248D01*
X153347835Y-86137601D01*
X153250940Y-86017060D01*
X153106753Y-85901158D01*
X153106754Y-85901158D01*
X153106751Y-85901156D01*
X152941021Y-85818963D01*
X152761493Y-85774316D01*
X152735966Y-85772585D01*
X152719954Y-85771500D01*
X151572046Y-85771500D01*
X151556769Y-85772535D01*
X151530506Y-85774316D01*
X151350978Y-85818963D01*
X151185248Y-85901156D01*
X151041060Y-86017060D01*
X150925156Y-86161248D01*
X150842963Y-86326978D01*
X150798316Y-86506506D01*
X150795500Y-86548053D01*
X150795500Y-87513968D01*
X150775538Y-87588468D01*
X150721000Y-87643006D01*
X150646500Y-87662968D01*
X150572000Y-87643006D01*
X150541141Y-87619327D01*
X149730141Y-86808327D01*
X149691577Y-86741532D01*
X149686500Y-86702968D01*
X149686500Y-86548053D01*
X149683683Y-86506506D01*
X149674764Y-86470642D01*
X149639037Y-86326979D01*
X149597939Y-86244113D01*
X149556843Y-86161248D01*
X149537835Y-86137601D01*
X149440940Y-86017060D01*
X149296753Y-85901158D01*
X149296754Y-85901158D01*
X149296751Y-85901156D01*
X149131021Y-85818963D01*
X148951493Y-85774316D01*
X148925966Y-85772585D01*
X148909954Y-85771500D01*
X147762046Y-85771500D01*
X147746769Y-85772535D01*
X147720506Y-85774316D01*
X147540978Y-85818963D01*
X147375248Y-85901156D01*
X147231060Y-86017060D01*
X147115156Y-86161248D01*
X147032963Y-86326978D01*
X146988316Y-86506506D01*
X146986450Y-86534034D01*
X146985500Y-86548046D01*
X145017798Y-86548046D01*
X145009187Y-85566395D01*
X145028495Y-85491726D01*
X145082552Y-85436712D01*
X145156874Y-85416097D01*
X145158181Y-85416091D01*
X181950500Y-85416091D01*
X182025000Y-85436053D01*
G37*
G04 #@! TD.AperFunction*
M02*
