G04 #@! TF.GenerationSoftware,KiCad,Pcbnew,9.0.2*
G04 #@! TF.CreationDate,2025-08-29T18:44:53+02:00*
G04 #@! TF.ProjectId,sio2flip,73696f32-666c-4697-902e-6b696361645f,rev?*
G04 #@! TF.SameCoordinates,Original*
G04 #@! TF.FileFunction,Copper,L2,Bot*
G04 #@! TF.FilePolarity,Positive*
%FSLAX46Y46*%
G04 Gerber Fmt 4.6, Leading zero omitted, Abs format (unit mm)*
G04 Created by KiCad (PCBNEW 9.0.2) date 2025-08-29 18:44:53*
%MOMM*%
%LPD*%
G01*
G04 APERTURE LIST*
G04 #@! TA.AperFunction,ComponentPad*
%ADD10R,1.700000X1.700000*%
G04 #@! TD*
G04 #@! TA.AperFunction,ComponentPad*
%ADD11C,1.700000*%
G04 #@! TD*
G04 #@! TA.AperFunction,ViaPad*
%ADD12C,0.600000*%
G04 #@! TD*
G04 APERTURE END LIST*
D10*
X157124330Y-92978625D03*
D11*
X159664330Y-92978625D03*
X162204330Y-92978625D03*
X164744330Y-92978625D03*
X167284330Y-92978625D03*
X169824330Y-92978625D03*
X172364330Y-92978625D03*
X174904330Y-92978625D03*
X177444330Y-92978625D03*
X179984330Y-92978625D03*
D12*
X145923000Y-94869000D03*
X174752000Y-95377000D03*
X145796000Y-86360000D03*
X179705000Y-89789000D03*
X179959000Y-95377000D03*
X179832000Y-86106000D03*
X157988000Y-90170000D03*
X175006000Y-86106000D03*
X154686000Y-86106000D03*
X170434000Y-86106000D03*
X170434000Y-89027000D03*
X159639000Y-86106000D03*
X145796000Y-90932000D03*
G04 #@! TA.AperFunction,Conductor*
G36*
X182042539Y-85435776D02*
G01*
X182088294Y-85488580D01*
X182099500Y-85540091D01*
X182099500Y-96484842D01*
X182079815Y-96551881D01*
X182027011Y-96597636D01*
X181975500Y-96608842D01*
X145158000Y-96608842D01*
X145090961Y-96589157D01*
X145045206Y-96536353D01*
X145034000Y-96484842D01*
X145034000Y-92095364D01*
X155923830Y-92095364D01*
X155923830Y-93861885D01*
X155933756Y-93930016D01*
X155985133Y-94035110D01*
X156067844Y-94117821D01*
X156067845Y-94117821D01*
X156067847Y-94117823D01*
X156172937Y-94169198D01*
X156207003Y-94174161D01*
X156241069Y-94179125D01*
X156241070Y-94179125D01*
X158007591Y-94179125D01*
X158030301Y-94175816D01*
X158075723Y-94169198D01*
X158180813Y-94117823D01*
X158263528Y-94035108D01*
X158314903Y-93930018D01*
X158324830Y-93861885D01*
X158324830Y-93510534D01*
X158344515Y-93443495D01*
X158397319Y-93397740D01*
X158466477Y-93387796D01*
X158530033Y-93416821D01*
X158559314Y-93454238D01*
X158637570Y-93607824D01*
X158748640Y-93760698D01*
X158882257Y-93894315D01*
X159035131Y-94005385D01*
X159093466Y-94035108D01*
X159203493Y-94091170D01*
X159203495Y-94091170D01*
X159203498Y-94091172D01*
X159285515Y-94117821D01*
X159383211Y-94149565D01*
X159569844Y-94179125D01*
X159569849Y-94179125D01*
X159758816Y-94179125D01*
X159945448Y-94149565D01*
X159995669Y-94133247D01*
X160125162Y-94091172D01*
X160293529Y-94005385D01*
X160446403Y-93894315D01*
X160580020Y-93760698D01*
X160691090Y-93607824D01*
X160739951Y-93511927D01*
X160787925Y-93461132D01*
X160855746Y-93444337D01*
X160921881Y-93466874D01*
X160960921Y-93511928D01*
X161049705Y-93686175D01*
X161089058Y-93740341D01*
X161721367Y-93108033D01*
X161738405Y-93171618D01*
X161804231Y-93285632D01*
X161897323Y-93378724D01*
X162011337Y-93444550D01*
X162074920Y-93461587D01*
X161442612Y-94093894D01*
X161442612Y-94093895D01*
X161496779Y-94133249D01*
X161686112Y-94229720D01*
X161888200Y-94295382D01*
X162098084Y-94328625D01*
X162310576Y-94328625D01*
X162520457Y-94295382D01*
X162520460Y-94295382D01*
X162722547Y-94229720D01*
X162911884Y-94133247D01*
X162966046Y-94093895D01*
X162966047Y-94093895D01*
X162333738Y-93461587D01*
X162397323Y-93444550D01*
X162511337Y-93378724D01*
X162604429Y-93285632D01*
X162670255Y-93171618D01*
X162687292Y-93108033D01*
X163319600Y-93740342D01*
X163319600Y-93740341D01*
X163358952Y-93686179D01*
X163447738Y-93511928D01*
X163495712Y-93461132D01*
X163563533Y-93444337D01*
X163629668Y-93466874D01*
X163668707Y-93511928D01*
X163717566Y-93607819D01*
X163717570Y-93607824D01*
X163828640Y-93760698D01*
X163962257Y-93894315D01*
X164115131Y-94005385D01*
X164173466Y-94035108D01*
X164283493Y-94091170D01*
X164283495Y-94091170D01*
X164283498Y-94091172D01*
X164365515Y-94117821D01*
X164463211Y-94149565D01*
X164649844Y-94179125D01*
X164649849Y-94179125D01*
X164838816Y-94179125D01*
X165025448Y-94149565D01*
X165075669Y-94133247D01*
X165205162Y-94091172D01*
X165373529Y-94005385D01*
X165526403Y-93894315D01*
X165660020Y-93760698D01*
X165771090Y-93607824D01*
X165856877Y-93439457D01*
X165896399Y-93317820D01*
X165935837Y-93260146D01*
X166000196Y-93232948D01*
X166069042Y-93244863D01*
X166120518Y-93292107D01*
X166132261Y-93317821D01*
X166171784Y-93439461D01*
X166257567Y-93607819D01*
X166257570Y-93607824D01*
X166368640Y-93760698D01*
X166502257Y-93894315D01*
X166655131Y-94005385D01*
X166713466Y-94035108D01*
X166823493Y-94091170D01*
X166823495Y-94091170D01*
X166823498Y-94091172D01*
X166905515Y-94117821D01*
X167003211Y-94149565D01*
X167189844Y-94179125D01*
X167189849Y-94179125D01*
X167378816Y-94179125D01*
X167565448Y-94149565D01*
X167615669Y-94133247D01*
X167745162Y-94091172D01*
X167913529Y-94005385D01*
X168066403Y-93894315D01*
X168200020Y-93760698D01*
X168311090Y-93607824D01*
X168396877Y-93439457D01*
X168436399Y-93317820D01*
X168475837Y-93260146D01*
X168540196Y-93232948D01*
X168609042Y-93244863D01*
X168660518Y-93292107D01*
X168672261Y-93317821D01*
X168711784Y-93439461D01*
X168797567Y-93607819D01*
X168797570Y-93607824D01*
X168908640Y-93760698D01*
X169042257Y-93894315D01*
X169195131Y-94005385D01*
X169253466Y-94035108D01*
X169363493Y-94091170D01*
X169363495Y-94091170D01*
X169363498Y-94091172D01*
X169445515Y-94117821D01*
X169543211Y-94149565D01*
X169729844Y-94179125D01*
X169729849Y-94179125D01*
X169918816Y-94179125D01*
X170105448Y-94149565D01*
X170155669Y-94133247D01*
X170285162Y-94091172D01*
X170453529Y-94005385D01*
X170606403Y-93894315D01*
X170740020Y-93760698D01*
X170851090Y-93607824D01*
X170936877Y-93439457D01*
X170976399Y-93317820D01*
X171015837Y-93260146D01*
X171080196Y-93232948D01*
X171149042Y-93244863D01*
X171200518Y-93292107D01*
X171212261Y-93317821D01*
X171251784Y-93439461D01*
X171337567Y-93607819D01*
X171337570Y-93607824D01*
X171448640Y-93760698D01*
X171582257Y-93894315D01*
X171735131Y-94005385D01*
X171793466Y-94035108D01*
X171903493Y-94091170D01*
X171903495Y-94091170D01*
X171903498Y-94091172D01*
X171985515Y-94117821D01*
X172083211Y-94149565D01*
X172269844Y-94179125D01*
X172269849Y-94179125D01*
X172458816Y-94179125D01*
X172645448Y-94149565D01*
X172695669Y-94133247D01*
X172825162Y-94091172D01*
X172993529Y-94005385D01*
X173146403Y-93894315D01*
X173280020Y-93760698D01*
X173391090Y-93607824D01*
X173476877Y-93439457D01*
X173516399Y-93317820D01*
X173555837Y-93260146D01*
X173620196Y-93232948D01*
X173689042Y-93244863D01*
X173740518Y-93292107D01*
X173752261Y-93317821D01*
X173791784Y-93439461D01*
X173877567Y-93607819D01*
X173877570Y-93607824D01*
X173988640Y-93760698D01*
X174122257Y-93894315D01*
X174275131Y-94005385D01*
X174333466Y-94035108D01*
X174443493Y-94091170D01*
X174443495Y-94091170D01*
X174443498Y-94091172D01*
X174525515Y-94117821D01*
X174623211Y-94149565D01*
X174809844Y-94179125D01*
X174809849Y-94179125D01*
X174998816Y-94179125D01*
X175185448Y-94149565D01*
X175235669Y-94133247D01*
X175365162Y-94091172D01*
X175533529Y-94005385D01*
X175686403Y-93894315D01*
X175820020Y-93760698D01*
X175931090Y-93607824D01*
X176016877Y-93439457D01*
X176056399Y-93317820D01*
X176095837Y-93260146D01*
X176160196Y-93232948D01*
X176229042Y-93244863D01*
X176280518Y-93292107D01*
X176292261Y-93317821D01*
X176331784Y-93439461D01*
X176417567Y-93607819D01*
X176417570Y-93607824D01*
X176528640Y-93760698D01*
X176662257Y-93894315D01*
X176815131Y-94005385D01*
X176873466Y-94035108D01*
X176983493Y-94091170D01*
X176983495Y-94091170D01*
X176983498Y-94091172D01*
X177065515Y-94117821D01*
X177163211Y-94149565D01*
X177349844Y-94179125D01*
X177349849Y-94179125D01*
X177538816Y-94179125D01*
X177725448Y-94149565D01*
X177775669Y-94133247D01*
X177905162Y-94091172D01*
X178073529Y-94005385D01*
X178226403Y-93894315D01*
X178360020Y-93760698D01*
X178471090Y-93607824D01*
X178519951Y-93511927D01*
X178567925Y-93461132D01*
X178635746Y-93444337D01*
X178701881Y-93466874D01*
X178740921Y-93511928D01*
X178829705Y-93686175D01*
X178869058Y-93740341D01*
X179501367Y-93108033D01*
X179518405Y-93171618D01*
X179584231Y-93285632D01*
X179677323Y-93378724D01*
X179791337Y-93444550D01*
X179854920Y-93461587D01*
X179222612Y-94093894D01*
X179222612Y-94093895D01*
X179276779Y-94133249D01*
X179466112Y-94229720D01*
X179668200Y-94295382D01*
X179878084Y-94328625D01*
X180090576Y-94328625D01*
X180300457Y-94295382D01*
X180300460Y-94295382D01*
X180502547Y-94229720D01*
X180691884Y-94133247D01*
X180746046Y-94093895D01*
X180746047Y-94093895D01*
X180113738Y-93461587D01*
X180177323Y-93444550D01*
X180291337Y-93378724D01*
X180384429Y-93285632D01*
X180450255Y-93171618D01*
X180467292Y-93108034D01*
X181099600Y-93740342D01*
X181099600Y-93740341D01*
X181138952Y-93686179D01*
X181235425Y-93496842D01*
X181301087Y-93294755D01*
X181301087Y-93294752D01*
X181334330Y-93084871D01*
X181334330Y-92872378D01*
X181301087Y-92662497D01*
X181301087Y-92662494D01*
X181235425Y-92460407D01*
X181138954Y-92271074D01*
X181099600Y-92216907D01*
X181099599Y-92216907D01*
X180467292Y-92849215D01*
X180450255Y-92785632D01*
X180384429Y-92671618D01*
X180291337Y-92578526D01*
X180177323Y-92512700D01*
X180113739Y-92495662D01*
X180746046Y-91863353D01*
X180691880Y-91824000D01*
X180502547Y-91727529D01*
X180300459Y-91661867D01*
X180090576Y-91628625D01*
X179878084Y-91628625D01*
X179668202Y-91661867D01*
X179668199Y-91661867D01*
X179466112Y-91727529D01*
X179276769Y-91824005D01*
X179222612Y-91863352D01*
X179222612Y-91863353D01*
X179854921Y-92495662D01*
X179791337Y-92512700D01*
X179677323Y-92578526D01*
X179584231Y-92671618D01*
X179518405Y-92785632D01*
X179501367Y-92849216D01*
X178869058Y-92216907D01*
X178869057Y-92216907D01*
X178829710Y-92271065D01*
X178829708Y-92271068D01*
X178740920Y-92445322D01*
X178692946Y-92496117D01*
X178625124Y-92512912D01*
X178558990Y-92490374D01*
X178519951Y-92445321D01*
X178471089Y-92349425D01*
X178360020Y-92196552D01*
X178226403Y-92062935D01*
X178073529Y-91951865D01*
X177905166Y-91866079D01*
X177725448Y-91807684D01*
X177538816Y-91778125D01*
X177538811Y-91778125D01*
X177349849Y-91778125D01*
X177349844Y-91778125D01*
X177163211Y-91807684D01*
X176983493Y-91866079D01*
X176815130Y-91951865D01*
X176733835Y-92010930D01*
X176662257Y-92062935D01*
X176662255Y-92062937D01*
X176662254Y-92062937D01*
X176528642Y-92196549D01*
X176528642Y-92196550D01*
X176528640Y-92196552D01*
X176480940Y-92262204D01*
X176417570Y-92349425D01*
X176331784Y-92517788D01*
X176292261Y-92639428D01*
X176252823Y-92697103D01*
X176188464Y-92724301D01*
X176119618Y-92712386D01*
X176068142Y-92665141D01*
X176056399Y-92639428D01*
X176028578Y-92553806D01*
X176016877Y-92517793D01*
X176016875Y-92517790D01*
X176016875Y-92517788D01*
X175931089Y-92349425D01*
X175820020Y-92196552D01*
X175686403Y-92062935D01*
X175533529Y-91951865D01*
X175365166Y-91866079D01*
X175185448Y-91807684D01*
X174998816Y-91778125D01*
X174998811Y-91778125D01*
X174809849Y-91778125D01*
X174809844Y-91778125D01*
X174623211Y-91807684D01*
X174443493Y-91866079D01*
X174275130Y-91951865D01*
X174193835Y-92010930D01*
X174122257Y-92062935D01*
X174122255Y-92062937D01*
X174122254Y-92062937D01*
X173988642Y-92196549D01*
X173988642Y-92196550D01*
X173988640Y-92196552D01*
X173940940Y-92262204D01*
X173877570Y-92349425D01*
X173791784Y-92517788D01*
X173752261Y-92639428D01*
X173712823Y-92697103D01*
X173648464Y-92724301D01*
X173579618Y-92712386D01*
X173528142Y-92665141D01*
X173516399Y-92639428D01*
X173488578Y-92553806D01*
X173476877Y-92517793D01*
X173476875Y-92517790D01*
X173476875Y-92517788D01*
X173391089Y-92349425D01*
X173280020Y-92196552D01*
X173146403Y-92062935D01*
X172993529Y-91951865D01*
X172825166Y-91866079D01*
X172645448Y-91807684D01*
X172458816Y-91778125D01*
X172458811Y-91778125D01*
X172269849Y-91778125D01*
X172269844Y-91778125D01*
X172083211Y-91807684D01*
X171903493Y-91866079D01*
X171735130Y-91951865D01*
X171653835Y-92010930D01*
X171582257Y-92062935D01*
X171582255Y-92062937D01*
X171582254Y-92062937D01*
X171448642Y-92196549D01*
X171448642Y-92196550D01*
X171448640Y-92196552D01*
X171400940Y-92262204D01*
X171337570Y-92349425D01*
X171251784Y-92517788D01*
X171212261Y-92639428D01*
X171172823Y-92697103D01*
X171108464Y-92724301D01*
X171039618Y-92712386D01*
X170988142Y-92665141D01*
X170976399Y-92639428D01*
X170948578Y-92553806D01*
X170936877Y-92517793D01*
X170936875Y-92517790D01*
X170936875Y-92517788D01*
X170851089Y-92349425D01*
X170740020Y-92196552D01*
X170606403Y-92062935D01*
X170453529Y-91951865D01*
X170285166Y-91866079D01*
X170105448Y-91807684D01*
X169918816Y-91778125D01*
X169918811Y-91778125D01*
X169729849Y-91778125D01*
X169729844Y-91778125D01*
X169543211Y-91807684D01*
X169363493Y-91866079D01*
X169195130Y-91951865D01*
X169113835Y-92010930D01*
X169042257Y-92062935D01*
X169042255Y-92062937D01*
X169042254Y-92062937D01*
X168908642Y-92196549D01*
X168908642Y-92196550D01*
X168908640Y-92196552D01*
X168860940Y-92262204D01*
X168797570Y-92349425D01*
X168711784Y-92517788D01*
X168672261Y-92639428D01*
X168632823Y-92697103D01*
X168568464Y-92724301D01*
X168499618Y-92712386D01*
X168448142Y-92665141D01*
X168436399Y-92639428D01*
X168408578Y-92553806D01*
X168396877Y-92517793D01*
X168396875Y-92517790D01*
X168396875Y-92517788D01*
X168311089Y-92349425D01*
X168200020Y-92196552D01*
X168066403Y-92062935D01*
X167913529Y-91951865D01*
X167745166Y-91866079D01*
X167565448Y-91807684D01*
X167378816Y-91778125D01*
X167378811Y-91778125D01*
X167189849Y-91778125D01*
X167189844Y-91778125D01*
X167003211Y-91807684D01*
X166823493Y-91866079D01*
X166655130Y-91951865D01*
X166573835Y-92010930D01*
X166502257Y-92062935D01*
X166502255Y-92062937D01*
X166502254Y-92062937D01*
X166368642Y-92196549D01*
X166368642Y-92196550D01*
X166368640Y-92196552D01*
X166320940Y-92262204D01*
X166257570Y-92349425D01*
X166171784Y-92517788D01*
X166132261Y-92639428D01*
X166092823Y-92697103D01*
X166028464Y-92724301D01*
X165959618Y-92712386D01*
X165908142Y-92665141D01*
X165896399Y-92639428D01*
X165868578Y-92553806D01*
X165856877Y-92517793D01*
X165856875Y-92517790D01*
X165856875Y-92517788D01*
X165771089Y-92349425D01*
X165660020Y-92196552D01*
X165526403Y-92062935D01*
X165373529Y-91951865D01*
X165205166Y-91866079D01*
X165025448Y-91807684D01*
X164838816Y-91778125D01*
X164838811Y-91778125D01*
X164649849Y-91778125D01*
X164649844Y-91778125D01*
X164463211Y-91807684D01*
X164283493Y-91866079D01*
X164115130Y-91951865D01*
X164033835Y-92010930D01*
X163962257Y-92062935D01*
X163962255Y-92062937D01*
X163962254Y-92062937D01*
X163828642Y-92196549D01*
X163828642Y-92196550D01*
X163828640Y-92196552D01*
X163774503Y-92271065D01*
X163717568Y-92349428D01*
X163668707Y-92445322D01*
X163620732Y-92496117D01*
X163552911Y-92512912D01*
X163486777Y-92490374D01*
X163447738Y-92445321D01*
X163358954Y-92271074D01*
X163319600Y-92216907D01*
X163319599Y-92216907D01*
X162687292Y-92849215D01*
X162670255Y-92785632D01*
X162604429Y-92671618D01*
X162511337Y-92578526D01*
X162397323Y-92512700D01*
X162333739Y-92495662D01*
X162966046Y-91863353D01*
X162911880Y-91824000D01*
X162722547Y-91727529D01*
X162520459Y-91661867D01*
X162310576Y-91628625D01*
X162098084Y-91628625D01*
X161888202Y-91661867D01*
X161888199Y-91661867D01*
X161686112Y-91727529D01*
X161496769Y-91824005D01*
X161442612Y-91863352D01*
X161442612Y-91863353D01*
X162074921Y-92495662D01*
X162011337Y-92512700D01*
X161897323Y-92578526D01*
X161804231Y-92671618D01*
X161738405Y-92785632D01*
X161721367Y-92849216D01*
X161089058Y-92216907D01*
X161089057Y-92216907D01*
X161049710Y-92271065D01*
X161049708Y-92271068D01*
X160960920Y-92445322D01*
X160912946Y-92496117D01*
X160845124Y-92512912D01*
X160778990Y-92490374D01*
X160739951Y-92445321D01*
X160691089Y-92349425D01*
X160580020Y-92196552D01*
X160446403Y-92062935D01*
X160293529Y-91951865D01*
X160125166Y-91866079D01*
X159945448Y-91807684D01*
X159758816Y-91778125D01*
X159758811Y-91778125D01*
X159569849Y-91778125D01*
X159569844Y-91778125D01*
X159383211Y-91807684D01*
X159203493Y-91866079D01*
X159035130Y-91951865D01*
X158953835Y-92010930D01*
X158882257Y-92062935D01*
X158882255Y-92062937D01*
X158882254Y-92062937D01*
X158748642Y-92196549D01*
X158748642Y-92196550D01*
X158748640Y-92196552D01*
X158700940Y-92262204D01*
X158637570Y-92349425D01*
X158559315Y-92503010D01*
X158511340Y-92553806D01*
X158443519Y-92570601D01*
X158377384Y-92548064D01*
X158333933Y-92493348D01*
X158324830Y-92446715D01*
X158324830Y-92095364D01*
X158314903Y-92027233D01*
X158306933Y-92010930D01*
X158263528Y-91922142D01*
X158263526Y-91922140D01*
X158263526Y-91922139D01*
X158180815Y-91839428D01*
X158075721Y-91788051D01*
X158007591Y-91778125D01*
X158007590Y-91778125D01*
X156241070Y-91778125D01*
X156241069Y-91778125D01*
X156172938Y-91788051D01*
X156067844Y-91839428D01*
X155985133Y-91922139D01*
X155933756Y-92027233D01*
X155923830Y-92095364D01*
X145034000Y-92095364D01*
X145034000Y-85540091D01*
X145053685Y-85473052D01*
X145106489Y-85427297D01*
X145158000Y-85416091D01*
X181975500Y-85416091D01*
X182042539Y-85435776D01*
G37*
G04 #@! TD.AperFunction*
M02*
