G04 #@! TF.GenerationSoftware,KiCad,Pcbnew,9.0.2*
G04 #@! TF.CreationDate,2025-08-29T18:44:53+02:00*
G04 #@! TF.ProjectId,sio2flip,73696f32-666c-4697-902e-6b696361645f,rev?*
G04 #@! TF.SameCoordinates,Original*
G04 #@! TF.FileFunction,Legend,Top*
G04 #@! TF.FilePolarity,Positive*
%FSLAX46Y46*%
G04 Gerber Fmt 4.6, Leading zero omitted, Abs format (unit mm)*
G04 Created by KiCad (PCBNEW 9.0.2) date 2025-08-29 18:44:53*
%MOMM*%
%LPD*%
G01*
G04 APERTURE LIST*
G04 Aperture macros list*
%AMRoundRect*
0 Rectangle with rounded corners*
0 $1 Rounding radius*
0 $2 $3 $4 $5 $6 $7 $8 $9 X,Y pos of 4 corners*
0 Add a 4 corners polygon primitive as box body*
4,1,4,$2,$3,$4,$5,$6,$7,$8,$9,$2,$3,0*
0 Add four circle primitives for the rounded corners*
1,1,$1+$1,$2,$3*
1,1,$1+$1,$4,$5*
1,1,$1+$1,$6,$7*
1,1,$1+$1,$8,$9*
0 Add four rect primitives between the rounded corners*
20,1,$1+$1,$2,$3,$4,$5,0*
20,1,$1+$1,$4,$5,$6,$7,0*
20,1,$1+$1,$6,$7,$8,$9,0*
20,1,$1+$1,$8,$9,$2,$3,0*%
G04 Aperture macros list end*
%ADD10C,0.150000*%
%ADD11C,0.120000*%
%ADD12RoundRect,0.250000X-0.250000X-0.475000X0.250000X-0.475000X0.250000X0.475000X-0.250000X0.475000X0*%
%ADD13RoundRect,0.500000X-0.500000X-0.500000X0.500000X-0.500000X0.500000X0.500000X-0.500000X0.500000X0*%
%ADD14RoundRect,0.250000X0.262500X0.450000X-0.262500X0.450000X-0.262500X-0.450000X0.262500X-0.450000X0*%
%ADD15RoundRect,0.250000X-0.262500X-0.450000X0.262500X-0.450000X0.262500X0.450000X-0.262500X0.450000X0*%
%ADD16RoundRect,0.150000X0.512500X0.150000X-0.512500X0.150000X-0.512500X-0.150000X0.512500X-0.150000X0*%
%ADD17R,1.700000X1.700000*%
%ADD18C,1.700000*%
G04 APERTURE END LIST*
D10*
X145617942Y-93612969D02*
X146517942Y-93612969D01*
X146517942Y-93612969D02*
X145875085Y-93912969D01*
X145875085Y-93912969D02*
X146517942Y-94212969D01*
X146517942Y-94212969D02*
X145617942Y-94212969D01*
X146517942Y-94812969D02*
X146517942Y-94984397D01*
X146517942Y-94984397D02*
X146475085Y-95070112D01*
X146475085Y-95070112D02*
X146389371Y-95155826D01*
X146389371Y-95155826D02*
X146217942Y-95198683D01*
X146217942Y-95198683D02*
X145917942Y-95198683D01*
X145917942Y-95198683D02*
X145746514Y-95155826D01*
X145746514Y-95155826D02*
X145660800Y-95070112D01*
X145660800Y-95070112D02*
X145617942Y-94984397D01*
X145617942Y-94984397D02*
X145617942Y-94812969D01*
X145617942Y-94812969D02*
X145660800Y-94727255D01*
X145660800Y-94727255D02*
X145746514Y-94641540D01*
X145746514Y-94641540D02*
X145917942Y-94598683D01*
X145917942Y-94598683D02*
X146217942Y-94598683D01*
X146217942Y-94598683D02*
X146389371Y-94641540D01*
X146389371Y-94641540D02*
X146475085Y-94727255D01*
X146475085Y-94727255D02*
X146517942Y-94812969D01*
X146517942Y-95455826D02*
X146517942Y-95970112D01*
X145617942Y-95712969D02*
X146517942Y-95712969D01*
X154003657Y-94127255D02*
X153960800Y-94084398D01*
X153960800Y-94084398D02*
X153917942Y-93955826D01*
X153917942Y-93955826D02*
X153917942Y-93870112D01*
X153917942Y-93870112D02*
X153960800Y-93741541D01*
X153960800Y-93741541D02*
X154046514Y-93655826D01*
X154046514Y-93655826D02*
X154132228Y-93612969D01*
X154132228Y-93612969D02*
X154303657Y-93570112D01*
X154303657Y-93570112D02*
X154432228Y-93570112D01*
X154432228Y-93570112D02*
X154603657Y-93612969D01*
X154603657Y-93612969D02*
X154689371Y-93655826D01*
X154689371Y-93655826D02*
X154775085Y-93741541D01*
X154775085Y-93741541D02*
X154817942Y-93870112D01*
X154817942Y-93870112D02*
X154817942Y-93955826D01*
X154817942Y-93955826D02*
X154775085Y-94084398D01*
X154775085Y-94084398D02*
X154732228Y-94127255D01*
X153917942Y-94512969D02*
X154817942Y-94512969D01*
X154817942Y-94512969D02*
X154175085Y-94812969D01*
X154175085Y-94812969D02*
X154817942Y-95112969D01*
X154817942Y-95112969D02*
X153917942Y-95112969D01*
X153917942Y-95541540D02*
X154817942Y-95541540D01*
X154817942Y-95541540D02*
X154817942Y-95755826D01*
X154817942Y-95755826D02*
X154775085Y-95884397D01*
X154775085Y-95884397D02*
X154689371Y-95970112D01*
X154689371Y-95970112D02*
X154603657Y-96012969D01*
X154603657Y-96012969D02*
X154432228Y-96055826D01*
X154432228Y-96055826D02*
X154303657Y-96055826D01*
X154303657Y-96055826D02*
X154132228Y-96012969D01*
X154132228Y-96012969D02*
X154046514Y-95970112D01*
X154046514Y-95970112D02*
X153960800Y-95884397D01*
X153960800Y-95884397D02*
X153917942Y-95755826D01*
X153917942Y-95755826D02*
X153917942Y-95541540D01*
X145659942Y-90228969D02*
X146559942Y-90228969D01*
X146559942Y-90228969D02*
X146559942Y-90443255D01*
X146559942Y-90443255D02*
X146517085Y-90571826D01*
X146517085Y-90571826D02*
X146431371Y-90657541D01*
X146431371Y-90657541D02*
X146345657Y-90700398D01*
X146345657Y-90700398D02*
X146174228Y-90743255D01*
X146174228Y-90743255D02*
X146045657Y-90743255D01*
X146045657Y-90743255D02*
X145874228Y-90700398D01*
X145874228Y-90700398D02*
X145788514Y-90657541D01*
X145788514Y-90657541D02*
X145702800Y-90571826D01*
X145702800Y-90571826D02*
X145659942Y-90443255D01*
X145659942Y-90443255D02*
X145659942Y-90228969D01*
X146559942Y-91300398D02*
X146559942Y-91471826D01*
X146559942Y-91471826D02*
X146517085Y-91557541D01*
X146517085Y-91557541D02*
X146431371Y-91643255D01*
X146431371Y-91643255D02*
X146259942Y-91686112D01*
X146259942Y-91686112D02*
X145959942Y-91686112D01*
X145959942Y-91686112D02*
X145788514Y-91643255D01*
X145788514Y-91643255D02*
X145702800Y-91557541D01*
X145702800Y-91557541D02*
X145659942Y-91471826D01*
X145659942Y-91471826D02*
X145659942Y-91300398D01*
X145659942Y-91300398D02*
X145702800Y-91214684D01*
X145702800Y-91214684D02*
X145788514Y-91128969D01*
X145788514Y-91128969D02*
X145959942Y-91086112D01*
X145959942Y-91086112D02*
X146259942Y-91086112D01*
X146259942Y-91086112D02*
X146431371Y-91128969D01*
X146431371Y-91128969D02*
X146517085Y-91214684D01*
X146517085Y-91214684D02*
X146559942Y-91300398D01*
X145659942Y-86672969D02*
X146559942Y-86672969D01*
X146559942Y-86672969D02*
X146559942Y-86887255D01*
X146559942Y-86887255D02*
X146517085Y-87015826D01*
X146517085Y-87015826D02*
X146431371Y-87101541D01*
X146431371Y-87101541D02*
X146345657Y-87144398D01*
X146345657Y-87144398D02*
X146174228Y-87187255D01*
X146174228Y-87187255D02*
X146045657Y-87187255D01*
X146045657Y-87187255D02*
X145874228Y-87144398D01*
X145874228Y-87144398D02*
X145788514Y-87101541D01*
X145788514Y-87101541D02*
X145702800Y-87015826D01*
X145702800Y-87015826D02*
X145659942Y-86887255D01*
X145659942Y-86887255D02*
X145659942Y-86672969D01*
X145659942Y-87572969D02*
X146559942Y-87572969D01*
X154772085Y-90319398D02*
X154814942Y-90233684D01*
X154814942Y-90233684D02*
X154814942Y-90105112D01*
X154814942Y-90105112D02*
X154772085Y-89976541D01*
X154772085Y-89976541D02*
X154686371Y-89890826D01*
X154686371Y-89890826D02*
X154600657Y-89847969D01*
X154600657Y-89847969D02*
X154429228Y-89805112D01*
X154429228Y-89805112D02*
X154300657Y-89805112D01*
X154300657Y-89805112D02*
X154129228Y-89847969D01*
X154129228Y-89847969D02*
X154043514Y-89890826D01*
X154043514Y-89890826D02*
X153957800Y-89976541D01*
X153957800Y-89976541D02*
X153914942Y-90105112D01*
X153914942Y-90105112D02*
X153914942Y-90190826D01*
X153914942Y-90190826D02*
X153957800Y-90319398D01*
X153957800Y-90319398D02*
X154000657Y-90362255D01*
X154000657Y-90362255D02*
X154300657Y-90362255D01*
X154300657Y-90362255D02*
X154300657Y-90190826D01*
X153914942Y-90747969D02*
X154814942Y-90747969D01*
X154814942Y-90747969D02*
X153914942Y-91262255D01*
X153914942Y-91262255D02*
X154814942Y-91262255D01*
X153914942Y-91690826D02*
X154814942Y-91690826D01*
X154814942Y-91690826D02*
X154814942Y-91905112D01*
X154814942Y-91905112D02*
X154772085Y-92033683D01*
X154772085Y-92033683D02*
X154686371Y-92119398D01*
X154686371Y-92119398D02*
X154600657Y-92162255D01*
X154600657Y-92162255D02*
X154429228Y-92205112D01*
X154429228Y-92205112D02*
X154300657Y-92205112D01*
X154300657Y-92205112D02*
X154129228Y-92162255D01*
X154129228Y-92162255D02*
X154043514Y-92119398D01*
X154043514Y-92119398D02*
X153957800Y-92033683D01*
X153957800Y-92033683D02*
X153914942Y-91905112D01*
X153914942Y-91905112D02*
X153914942Y-91690826D01*
X154927180Y-87045969D02*
X154927180Y-86569779D01*
X154927180Y-86569779D02*
X154450990Y-86522160D01*
X154450990Y-86522160D02*
X154498609Y-86569779D01*
X154498609Y-86569779D02*
X154546228Y-86665017D01*
X154546228Y-86665017D02*
X154546228Y-86903112D01*
X154546228Y-86903112D02*
X154498609Y-86998350D01*
X154498609Y-86998350D02*
X154450990Y-87045969D01*
X154450990Y-87045969D02*
X154355752Y-87093588D01*
X154355752Y-87093588D02*
X154117657Y-87093588D01*
X154117657Y-87093588D02*
X154022419Y-87045969D01*
X154022419Y-87045969D02*
X153974800Y-86998350D01*
X153974800Y-86998350D02*
X153927180Y-86903112D01*
X153927180Y-86903112D02*
X153927180Y-86665017D01*
X153927180Y-86665017D02*
X153974800Y-86569779D01*
X153974800Y-86569779D02*
X154022419Y-86522160D01*
X154927180Y-87379303D02*
X153927180Y-87712636D01*
X153927180Y-87712636D02*
X154927180Y-88045969D01*
D11*
X162603548Y-86895000D02*
X163126052Y-86895000D01*
X162603548Y-88365000D02*
X163126052Y-88365000D01*
X173074064Y-88292000D02*
X172619936Y-88292000D01*
X173074064Y-89762000D02*
X172619936Y-89762000D01*
X162610436Y-89308000D02*
X163064564Y-89308000D01*
X162610436Y-90778000D02*
X163064564Y-90778000D01*
X167005000Y-87467000D02*
X166205000Y-87467000D01*
X167005000Y-87467000D02*
X167805000Y-87467000D01*
X167005000Y-90587000D02*
X166205000Y-90587000D01*
X167005000Y-90587000D02*
X167805000Y-90587000D01*
X168545000Y-90867000D02*
X168065000Y-90867000D01*
X168305000Y-90537000D01*
X168545000Y-90867000D01*
G36*
X168545000Y-90867000D02*
G01*
X168065000Y-90867000D01*
X168305000Y-90537000D01*
X168545000Y-90867000D01*
G37*
%LPC*%
D12*
X161914800Y-87630000D03*
X163814800Y-87630000D03*
D13*
X148336000Y-94742000D03*
X152146000Y-87122000D03*
X152146000Y-90932000D03*
D14*
X173759500Y-89027000D03*
X171934500Y-89027000D03*
D13*
X148336000Y-90932000D03*
X152146000Y-94742000D03*
D15*
X161925000Y-90043000D03*
X163750000Y-90043000D03*
D16*
X168142500Y-89977000D03*
X168142500Y-89027000D03*
X168142500Y-88077000D03*
X165867500Y-88077000D03*
X165867500Y-89027000D03*
X165867500Y-89977000D03*
D13*
X148336000Y-87122000D03*
D17*
X157124330Y-92978625D03*
D18*
X159664330Y-92978625D03*
X162204330Y-92978625D03*
X164744330Y-92978625D03*
X167284330Y-92978625D03*
X169824330Y-92978625D03*
X172364330Y-92978625D03*
X174904330Y-92978625D03*
X177444330Y-92978625D03*
X179984330Y-92978625D03*
%LPD*%
M02*
