G04 #@! TF.GenerationSoftware,KiCad,Pcbnew,9.0.2*
G04 #@! TF.CreationDate,2025-08-29T18:44:53+02:00*
G04 #@! TF.ProjectId,sio2flip,73696f32-666c-4697-902e-6b696361645f,rev?*
G04 #@! TF.SameCoordinates,Original*
G04 #@! TF.FileFunction,Profile,NP*
%FSLAX46Y46*%
G04 Gerber Fmt 4.6, Leading zero omitted, Abs format (unit mm)*
G04 Created by KiCad (PCBNEW 9.0.2) date 2025-08-29 18:44:53*
%MOMM*%
%LPD*%
G01*
G04 APERTURE LIST*
G04 #@! TA.AperFunction,Profile*
%ADD10C,0.050000*%
G04 #@! TD*
G04 APERTURE END LIST*
D10*
X129150000Y-93000000D02*
G75*
G02*
X129150000Y-95000000I0J-1000000D01*
G01*
X121800000Y-93000000D02*
X122800000Y-93000000D01*
X128150000Y-95000000D02*
G75*
G02*
X128150000Y-93000000I0J1000000D01*
G01*
X121800000Y-95000000D02*
G75*
G02*
X121800000Y-93000000I0J1000000D01*
G01*
X134484000Y-89000000D02*
X135484000Y-89000000D01*
X121800000Y-89000000D02*
G75*
G02*
X121800000Y-87000000I0J1000000D01*
G01*
X134484000Y-89000000D02*
G75*
G02*
X134484000Y-87000000I0J1000000D01*
G01*
X121800000Y-87000000D02*
X122800000Y-87000000D01*
X134500000Y-95000000D02*
X135500000Y-95000000D01*
X122800000Y-87000000D02*
G75*
G02*
X122800000Y-89000000I0J-1000000D01*
G01*
X121800000Y-95000000D02*
X122800000Y-95000000D01*
X122800000Y-93000000D02*
G75*
G02*
X122800000Y-95000000I0J-1000000D01*
G01*
X128150000Y-87000000D02*
X129150000Y-87000000D01*
X128150000Y-89000000D02*
X129150000Y-89000000D01*
X135484000Y-87000000D02*
G75*
G02*
X135484000Y-89000000I0J-1000000D01*
G01*
X128150000Y-93000000D02*
X129150000Y-93000000D01*
X118500000Y-85015591D02*
X182500000Y-85015591D01*
X182500000Y-97009342D01*
X118500000Y-97009342D01*
X118500000Y-85015591D01*
X135500000Y-93000000D02*
G75*
G02*
X135500000Y-95000000I0J-1000000D01*
G01*
X128150000Y-89000000D02*
G75*
G02*
X128150000Y-87000000I0J1000000D01*
G01*
X134484000Y-87000000D02*
X135484000Y-87000000D01*
X129150000Y-87000000D02*
G75*
G02*
X129150000Y-89000000I0J-1000000D01*
G01*
X128150000Y-95000000D02*
X129150000Y-95000000D01*
X121800000Y-89000000D02*
X122800000Y-89000000D01*
X134500000Y-93000000D02*
X135500000Y-93000000D01*
X134500000Y-95000000D02*
G75*
G02*
X134500000Y-93000000I0J1000000D01*
G01*
M02*
