M48
; DRILL file {KiCad 9.0.2} date 2025-08-29T18:45:01+0200
; FORMAT={-:-/ absolute / metric / decimal}
; #@! TF.CreationDate,2025-08-29T18:45:01+02:00
; #@! TF.GenerationSoftware,Kicad,Pcbnew,9.0.2
; #@! TF.FileFunction,Plated,1,2,PTH
FMAT,2
METRIC
; #@! TA.AperFunction,Plated,PTH,ViaDrill
T1C0.300
; #@! TA.AperFunction,Plated,PTH,ComponentDrill
T2C1.000
%
G90
G05
T1
X145.796Y-86.36
X145.796Y-90.932
X145.923Y-94.869
X154.686Y-86.106
X157.988Y-90.17
X159.639Y-86.106
X170.434Y-86.106
X170.434Y-89.027
X174.752Y-95.377
X175.006Y-86.106
X179.705Y-89.789
X179.832Y-86.106
X179.959Y-95.377
T2
X157.124Y-92.979
X159.664Y-92.979
X162.204Y-92.979
X164.744Y-92.979
X167.284Y-92.979
X169.824Y-92.979
X172.364Y-92.979
X174.904Y-92.979
X177.444Y-92.979
X179.984Y-92.979
M30
