<?xml version="1.0" encoding="UTF-8" standalone="no"?>
<!-- Created with Inkscape (http://www.inkscape.org/) -->

<svg
   width="64"
   height="64"
   viewBox="0 0 16.933333 16.933333"
   version="1.1"
   id="svg1"
   xml:space="preserve"
   inkscape:version="1.4 (86a8ad7, 2024-10-11)"
   sodipodi:docname="leaf-sketch.svg"
   inkscape:export-filename="leaf-sketch.png"
   inkscape:export-xdpi="45.536236"
   inkscape:export-ydpi="45.536236"
   xmlns:inkscape="http://www.inkscape.org/namespaces/inkscape"
   xmlns:sodipodi="http://sodipodi.sourceforge.net/DTD/sodipodi-0.dtd"
   xmlns="http://www.w3.org/2000/svg"
   xmlns:svg="http://www.w3.org/2000/svg"
   xmlns:rdf="http://www.w3.org/1999/02/22-rdf-syntax-ns#"
   xmlns:cc="http://creativecommons.org/ns#"
   xmlns:dc="http://purl.org/dc/elements/1.1/"><title
     id="title2">Three leaves and a question mark on top</title><sodipodi:namedview
     id="namedview1"
     pagecolor="#ffffff"
     bordercolor="#000000"
     borderopacity="0.25"
     inkscape:showpageshadow="2"
     inkscape:pageopacity="0.0"
     inkscape:pagecheckerboard="0"
     inkscape:deskcolor="#d1d1d1"
     inkscape:document-units="mm"
     inkscape:zoom="4.2426407"
     inkscape:cx="75.896128"
     inkscape:cy="15.438498"
     inkscape:window-width="1920"
     inkscape:window-height="1001"
     inkscape:window-x="-9"
     inkscape:window-y="-9"
     inkscape:window-maximized="1"
     inkscape:current-layer="layer1" /><defs
     id="defs1" /><g
     inkscape:label="Layer 1"
     inkscape:groupmode="layer"
     id="layer1"><path
       d="M 12.66379,3.6910479 C 7.8914854,7.4874105 12.201023,12.036444 11.954025,12.393618 11.118829,11.713873 9.9385333,10.909484 9.1642659,10.161106 10.57084,6.005089 9.112845,0.10119766 0.4990837,0.25115802 1.4666082,3.6081137 2.0363333,6.9506623 4.3484577,9.3979459 5.5375266,10.199659 7.520486,10.518608 8.9681804,10.352066 c 0.8843369,0.891421 1.8156046,1.736257 2.7887386,2.529787 -1.32119,-0.247014 -4.8740553,-2.265237 -9.2434517,1.259353 0.884611,1.505234 3.82524,2.619993 5.5890486,2.284138 1.4441341,-0.25949 2.7620601,-1.603253 3.1313061,-2.957681 2.618837,-0.632555 2.589742,2.561307 5.719732,3.514619 L 16.928465,15.72694 C 15.65543,15.603233 13.114367,13.503913 12.31719,12.892052 14.189475,9.8540087 15.262048,7.050283 12.66379,3.6910479 Z M 0.93244436,0.61323041 C 10.082054,1.2679223 9.4222672,7.4329753 8.8719833,9.8054655 7.4575987,8.0534934 4.975077,3.8941969 2.5563542,2.4573661 4.0270914,4.7243665 7.8887056,8.2668615 8.0410387,9.8979629 2.3761282,9.6462792 2.185886,4.2302509 0.93244436,0.61323041 Z M 9.5938996,15.189101 c -2.047408,1.981938 -4.9797069,0.766929 -6.5905086,-0.921699 3.3921691,-2.38594 6.549658,-2.097624 7.621268,-0.922468 -1.5137654,0.716301 -3.3429119,0.709651 -6.0112771,1.196936 3.1320768,0.338032 3.9582717,-0.382377 5.8583171,-0.575312 -0.224393,0.413206 -0.8777994,1.222543 -0.8777994,1.222543 z M 12.691661,11.64021 c -0.927439,-2.7337323 0.05305,-3.4662408 -0.413547,-5.3350017 -1.076378,1.952866 -0.399937,4.1356357 -0.09703,5.1983757 -1.818091,-1.337216 -1.871545,-5.9199405 0.450635,-7.4219077 2.168795,3.1436683 0.576262,6.9388607 0.05994,7.5585337 z"
       id="path1"
       style="stroke-width:0.0111113"
       sodipodi:nodetypes="ccccccccccccccccccccccccccccccc" /><text
       xml:space="preserve"
       style="font-size:3.175px;text-align:start;writing-mode:lr-tb;direction:ltr;text-anchor:start;white-space:pre;inline-size:17.9848;display:inline;fill:#50247b;stroke:#ffffff;stroke-width:0.5;stroke-linecap:round;stroke-linejoin:round;stroke-dasharray:none;stroke-opacity:1"
       x="-1.3670139"
       y="15.23559"
       id="text1"
       transform="translate(4.6081597,0.1984375)"><tspan
         x="-1.3670139"
         y="15.23559"
         id="tspan3"><tspan
           style="font-size:19.7556px;font-family:Sans;-inkscape-font-specification:'Sans, Normal ';fill:#000000"
           id="tspan2">?</tspan></tspan></text><circle
       id="path3"
       style="fill:#000000;stroke:#ffffff;stroke-width:0.264583"
       cx="16.095486"
       cy="8.8194437"
       r="0.0033299758" /><circle
       id="path7"
       style="fill:#000000;stroke:#ffffff;stroke-width:0.264583"
       cx="0.74835467"
       cy="15.715447"
       r="0.0047092969" /></g><metadata
     id="metadata2"><rdf:RDF><cc:License
         rdf:about="http://creativecommons.org/licenses/by-nc-sa/4.0/"><cc:permits
           rdf:resource="http://creativecommons.org/ns#Reproduction" /><cc:permits
           rdf:resource="http://creativecommons.org/ns#Distribution" /><cc:requires
           rdf:resource="http://creativecommons.org/ns#Notice" /><cc:requires
           rdf:resource="http://creativecommons.org/ns#Attribution" /><cc:prohibits
           rdf:resource="http://creativecommons.org/ns#CommercialUse" /><cc:permits
           rdf:resource="http://creativecommons.org/ns#DerivativeWorks" /><cc:requires
           rdf:resource="http://creativecommons.org/ns#ShareAlike" /></cc:License><cc:Work
         rdf:about=""><cc:license
           rdf:resource="http://creativecommons.org/licenses/by-nc-sa/4.0/" /><dc:title>Three leaves and a question mark on top</dc:title><dc:language>Universal</dc:language><dc:creator><cc:Agent><dc:title>f.greil@tum.de</dc:title></cc:Agent></dc:creator><dc:date>2025-11-12</dc:date></cc:Work></rdf:RDF></metadata></svg>
